<svg xmlns="http://www.w3.org/2000/svg" width="469.39" height="301.49" viewBox="0 0 469.39 301.49">
  <g id="burger" transform="translate(-1016.329 -481.51)">
    <g id="Path_6" data-name="Path 6" transform="translate(1478 841.51) rotate(180)" fill="#e5b721">
      <path d="M 312.0611572265625 139.8160552978516 C 299.3116149902344 139.8161163330078 286.1417846679688 139.7024383544922 272.19873046875 139.5821075439453 C 257.4297790527344 139.4546661376953 242.1579437255859 139.3228302001953 226.5 139.3228302001953 C 210.8431701660156 139.3228302001953 195.5670623779297 139.4546661376953 180.7939453125 139.5821075439453 C 166.8520050048828 139.7024383544922 153.6833343505859 139.8160552978516 140.9388275146484 139.8160552978516 C 116.728889465332 139.8160552978516 99.1893310546875 139.3906097412109 84.06805419921875 138.4366149902344 C 65.75633239746094 137.2812805175781 51.2059440612793 135.3116149902344 39.58544540405273 132.4150543212891 C 33.27822113037109 130.8428955078125 27.69883346557617 128.9518890380859 23.00227737426758 126.7946701049805 C 18.11455535888672 124.5496139526367 13.98527812957764 121.9260559082031 10.72922229766846 118.9970016479492 C 7.36994457244873 115.9749984741211 4.810500144958496 112.5110549926758 3.121888875961304 108.7014465332031 C 1.382111072540283 104.7763366699219 0.5 100.3347244262695 0.5 95.5 C 0.5 91.79222106933594 1.018444418907166 88.35839080810547 2.040999889373779 85.2939453125 C 3.038166761398315 82.30527496337891 4.550222396850586 79.56316375732422 6.535110950469971 77.14372253417969 C 8.47177791595459 74.78305816650391 10.92866706848145 72.64421844482422 13.83744430541992 70.78666687011719 C 16.66533279418945 68.98078155517578 20.02311134338379 67.37527465820312 23.8174991607666 66.01472473144531 C 31.02377700805664 63.43083190917969 39.95877838134766 61.62350082397461 51.13299942016602 60.48949813842773 C 60.94072341918945 59.49416732788086 72.68333435058594 59.01033401489258 87.03172302246094 59.01033401489258 C 104.7429428100586 59.01033401489258 124.7639999389648 59.73588943481445 145.9605560302734 60.50405502319336 C 170.4143371582031 61.39027786254883 198.1308898925781 62.39472198486328 226.5 62.39472198486328 C 254.864501953125 62.39472198486328 282.5820007324219 61.39027786254883 307.03662109375 60.50411224365234 C 328.235107421875 59.73594284057617 348.2579345703125 59.01033401489258 365.9682922363281 59.01033401489258 C 380.3197326660156 59.01033401489258 392.0635986328125 59.49405670166016 401.8710632324219 60.48905563354492 C 413.045654296875 61.62277603149414 421.9804992675781 63.42983245849609 429.1860656738281 66.01349639892578 C 432.9801635742188 67.37394714355469 436.3375549316406 68.97938537597656 439.1650695800781 70.78522491455078 C 442.0733947753906 72.64272308349609 444.5298767089844 74.78155517578125 446.4662170410156 77.142333984375 C 448.4506530761719 79.56183624267578 449.96240234375 82.30405426025391 450.9593811035156 85.29299926757812 C 451.9816589355469 88.35761260986328 452.5 91.79177856445312 452.5 95.5 C 452.5 100.3342742919922 451.6177368164062 104.7755584716797 449.8776550292969 108.7005004882812 C 448.1888427734375 112.5098342895508 445.6290588378906 115.9736099243164 442.269287109375 118.9954986572266 C 439.0128784179688 121.9244995117188 434.8831787109375 124.5479965209961 429.9949340820312 126.7931137084961 C 425.2979431152344 128.9503326416016 419.7181701660156 130.8413848876953 413.4106140136719 132.4136047363281 C 401.7893371582031 135.3103942871094 387.23876953125 137.2802734375 368.9274291992188 138.4358825683594 C 353.8055419921875 139.3902282714844 336.2673950195312 139.8158874511719 312.0611572265625 139.8160552978516 Z" stroke="none"/>
      <path d="M 87.03155517578125 59.51033020019531 C 72.70022583007812 59.51033020019531 60.97415161132812 59.99333190917969 51.18338012695312 60.9869384765625 C 40.050048828125 62.11677551269531 31.15377807617188 63.91533660888672 23.98623657226562 66.48533630371094 C 20.22695922851562 67.83327484130859 16.9029541015625 69.42222595214844 14.10650634765625 71.20805358886719 C 11.24221801757812 73.03717041015625 8.82489013671875 75.14094543457031 6.921661376953125 77.46083068847656 C 4.975616455078125 79.83294677734375 3.49310302734375 82.52161407470703 2.515289306640625 85.45216369628906 C 1.50982666015625 88.46555328369141 1 91.84610748291016 1 95.5 C 1 100.2644424438477 1.86773681640625 104.6378860473633 3.57904052734375 108.4988327026367 C 5.2388916015625 112.2436676025391 7.757110595703125 115.6506652832031 11.063720703125 118.6252212524414 C 14.2822265625 121.5206146240234 18.36917114257812 124.1162796020508 23.21112060546875 126.3402786254883 C 27.87948608398438 128.484619140625 33.42938232421875 130.3652191162109 39.70654296875 131.9298858642578 C 51.29745483398438 134.8190612792969 65.818603515625 136.7842254638672 84.09982299804688 137.9376068115234 C 99.21026611328125 138.8909454345703 116.7401733398438 139.3160552978516 140.9391784667969 139.3160552978516 C 153.6814880371094 139.3160552978516 166.8490600585938 139.2024536132812 180.7897644042969 139.0821685791016 C 195.5639038085938 138.9546661376953 210.8410034179688 138.8228302001953 226.5 138.8228302001953 C 242.1631164550781 138.8228302001953 257.438720703125 138.9546661376953 272.2113952636719 139.0821685791016 C 286.1502075195312 139.2024536132812 299.3160400390625 139.3160552978516 312.0608520507812 139.3160552978516 C 336.2557678222656 139.3160552978516 353.7842712402344 138.8907775878906 368.8956604003906 137.9371643066406 C 387.1764526367188 136.7835083007812 401.6977844238281 134.818115234375 413.2894897460938 131.9286651611328 C 419.5670471191406 130.3638916015625 425.1173400878906 128.4832153320312 429.7861633300781 126.3388900756836 C 434.6285400390625 124.1148300170898 438.7159423828125 121.5191116333008 441.9348754882812 118.6238327026367 C 445.241943359375 115.6492767333984 447.7604370117188 112.2424468994141 449.4205627441406 108.4978332519531 C 451.1321716308594 104.6371078491211 452 100.2639999389648 452 95.5 C 452 91.84561157226562 451.4903259277344 88.4647216796875 450.485107421875 85.45111083984375 C 449.5075073242188 82.52027893066406 448.0252685546875 79.83139038085938 446.0796203613281 77.45922088623047 C 444.1767272949219 75.13916778564453 441.7598266601562 73.03538513183594 438.8959350585938 71.20627593994141 C 436.0998840332031 69.42044067382812 432.7762756347656 67.83155822753906 429.017333984375 66.48366546630859 C 421.8504028320312 63.91378021240234 412.9542846679688 62.11549377441406 401.8206787109375 60.98594665527344 C 392.0298461914062 59.99266052246094 380.302490234375 59.50999450683594 365.9684448242188 59.51033020019531 C 348.2701721191406 59.51072692871094 328.2555541992188 60.23594665527344 307.0658264160156 61.00372314453125 C 282.6036682128906 61.89010620117188 254.8777160644531 62.89472961425781 226.5 62.89472961425781 C 198.1217803955078 62.89472961425781 170.4004516601562 61.89010620117188 145.9423217773438 61.00372314453125 C 124.7503967285156 60.2357177734375 104.7337341308594 59.51033020019531 87.03155517578125 59.51033020019531 M 87.03158569335938 58.51033020019531 C 125.4795227050781 58.51033020019531 173.8945617675781 61.89472961425781 226.5 61.89472961425781 C 279.0977783203125 61.89472961425781 327.5231628417969 58.51121520996094 365.9684143066406 58.51033020019531 C 418.9569091796875 58.50912475585938 453 64.93378448486328 453 95.5 C 453 135.4758605957031 394.7300415039062 140.3160400390625 312.0608520507812 140.3160400390625 C 285.6583862304688 140.3160400390625 256.7805786132812 139.8228302001953 226.5 139.8228302001953 C 196.22705078125 139.8228302001953 167.3362121582031 140.3160400390625 140.9391479492188 140.3160400390625 C 58.25936889648438 140.3160400390625 0 135.4790954589844 0 95.5 C 0 64.93700408935547 34.05264282226562 58.51033020019531 87.03158569335938 58.51033020019531 Z" stroke="none" fill="#707070"/>
    </g>
    <path id="Path_5" data-name="Path 5" d="M593.857,794.875c375.5-1.987,391.824,0,391.824,0s40.059,21.24,36.28,35.772-25.094,21.115-51.4,22.358-26.152-17.389-53.815-17.389S887.121,853,859.91,853s-28.117-17.389-52-17.389S787.653,853,764.373,853s-26.757-17.389-49.583-17.389S694.987,853,673.068,853s-24.489-17.389-45.955-17.389S605.5,854.246,587.205,853s-34.92-7.825-33.257-22.358S593.857,794.875,593.857,794.875Z" transform="translate(463 -116.992)" fill="#8f0" stroke="#707070" stroke-width="1"/>
    <g id="Path_8" data-name="Path 8" transform="translate(1096.746 647.579) rotate(7)" fill="red">
      <path d="M 50.248291015625 64.0279541015625 C 22.81698417663574 64.0279541015625 0.4999976754188538 50.85883331298828 0.4999976754188538 34.67179489135742 C 0.4999976754188538 32.53884887695312 0.8770909905433655 30.81023406982422 1.652824401855469 29.38718032836914 C 2.381130933761597 28.0511417388916 3.449464321136475 27.01239395141602 4.918877601623535 26.21159362792969 C 6.31049108505249 25.45319366455078 8.041677474975586 24.91922187805176 10.21137142181396 24.57916831970215 C 12.16073131561279 24.27363395690918 14.48379802703857 24.12510108947754 17.31331825256348 24.12510108947754 C 21.31503677368164 24.12510108947754 25.95142364501953 24.42212677001953 30.86002349853516 24.73659515380859 C 36.72468948364258 25.11230087280273 43.371826171875 25.53814125061035 50.248291015625 25.53814125061035 C 57.12370300292969 25.53814125061035 63.77102279663086 25.11231422424316 69.63582611083984 24.73660850524902 C 74.54486083984375 24.42214012145996 79.18166351318359 24.12510108947754 83.18326568603516 24.12510108947754 C 86.013427734375 24.12510108947754 88.33678436279297 24.27358055114746 90.28610229492188 24.57902145385742 C 92.45586395263672 24.91900825500488 94.18701171875 25.45290184020996 95.57846069335938 26.21122169494629 C 97.04769134521484 27.01191520690918 98.11586761474609 28.05063438415527 98.84402465820312 29.38671493530273 C 99.61958312988281 30.80976676940918 99.99658203125 32.53853988647461 99.99658203125 34.67179489135742 C 99.99658203125 50.85883331298828 77.67959594726562 64.0279541015625 50.248291015625 64.0279541015625 Z" stroke="none"/>
      <path d="M 17.31331634521484 24.62509918212891 C 11.55623626708984 24.62509918212891 7.69384765625 25.26872634887695 5.15814208984375 26.650634765625 C 2.321281433105469 28.19665908813477 1 30.74543380737305 1 34.67179489135742 C 1 38.49029922485352 2.266197204589844 42.20516586303711 4.763427734375 45.71323394775391 C 7.213027954101562 49.15438079833984 10.73387908935547 52.25319671630859 15.22819519042969 54.92359161376953 C 19.75963592529297 57.61604690551758 25.04353332519531 59.73172760009766 30.93312835693359 61.21187591552734 C 37.04835891723633 62.74871444702148 43.54691696166992 63.5279541015625 50.248291015625 63.5279541015625 C 56.94966506958008 63.5279541015625 63.44822311401367 62.74871444702148 69.56345367431641 61.21187591552734 C 75.45304870605469 59.73172760009766 80.73694610595703 57.61604690551758 85.26838684082031 54.92359161376953 C 89.76270294189453 52.25319671630859 93.28355407714844 49.15438079833984 95.733154296875 45.71323394775391 C 98.23038482666016 42.20516586303711 99.49658203125 38.49029922485352 99.49658203125 34.67179489135742 C 99.49658203125 30.74488830566406 98.17554473876953 28.19595336914062 95.33919525146484 26.65018081665039 C 92.80393218994141 25.26848602294922 88.94130706787109 24.62500762939453 83.18327331542969 24.62509918212891 C 79.19795989990234 24.62516784667969 74.56929016113281 24.92167282104492 69.66885375976562 25.23558044433594 C 63.79624938964844 25.61176681518555 57.14010620117188 26.03813934326172 50.248291015625 26.03813934326172 C 43.35583877563477 26.03813934326172 36.70021057128906 25.61175537109375 30.82806396484375 25.23556900024414 C 25.92766571044922 24.92163467407227 21.29903411865234 24.62509918212891 17.31331634521484 24.62509918212891 M 17.31332397460938 23.62510681152344 C 26.13320922851562 23.62510681152344 37.64804840087891 25.03813934326172 50.248291015625 25.03813934326172 C 77.99965667724609 25.03814315795898 100.49658203125 18.18270111083984 100.49658203125 34.67179489135742 C 100.49658203125 51.1609001159668 77.99964904785156 64.5279541015625 50.248291015625 64.5279541015625 C 22.49693298339844 64.5279541015625 0 51.1609001159668 0 34.67179489135742 C 0 25.66941833496094 6.707878112792969 23.62510681152344 17.31332397460938 23.62510681152344 Z" stroke="none" fill="#707070"/>
    </g>
    <g id="Path_9" data-name="Path 9" transform="matrix(0.985, -0.174, 0.174, 0.985, 1310.109, 661.326)" fill="red">
      <path d="M 50.248291015625 64.0279541015625 C 22.81698417663574 64.0279541015625 0.4999976754188538 50.85883331298828 0.4999976754188538 34.67179489135742 C 0.4999976754188538 32.53884887695312 0.8770909905433655 30.81023406982422 1.652824401855469 29.38718032836914 C 2.381130933761597 28.0511417388916 3.449464321136475 27.01239395141602 4.918877601623535 26.21159362792969 C 6.31049108505249 25.45319366455078 8.041677474975586 24.91922187805176 10.21137142181396 24.57916831970215 C 12.16073131561279 24.27363395690918 14.48379802703857 24.12510108947754 17.31331825256348 24.12510108947754 C 21.31503677368164 24.12510108947754 25.95142364501953 24.42212677001953 30.86002349853516 24.73659515380859 C 36.72468948364258 25.11230087280273 43.371826171875 25.53814125061035 50.248291015625 25.53814125061035 C 57.12370300292969 25.53814125061035 63.77102279663086 25.11231422424316 69.63582611083984 24.73660850524902 C 74.54486083984375 24.42214012145996 79.18166351318359 24.12510108947754 83.18326568603516 24.12510108947754 C 86.013427734375 24.12510108947754 88.33678436279297 24.27358055114746 90.28610229492188 24.57902145385742 C 92.45586395263672 24.91900825500488 94.18701171875 25.45290184020996 95.57846069335938 26.21122169494629 C 97.04769134521484 27.01191520690918 98.11586761474609 28.05063438415527 98.84402465820312 29.38671493530273 C 99.61958312988281 30.80976676940918 99.99658203125 32.53853988647461 99.99658203125 34.67179489135742 C 99.99658203125 50.85883331298828 77.67959594726562 64.0279541015625 50.248291015625 64.0279541015625 Z" stroke="none"/>
      <path d="M 17.31331634521484 24.62509918212891 C 11.55623626708984 24.62509918212891 7.69384765625 25.26872634887695 5.15814208984375 26.650634765625 C 2.321281433105469 28.19665908813477 1 30.74543380737305 1 34.67179489135742 C 1 38.49029922485352 2.266197204589844 42.20516586303711 4.763427734375 45.71323394775391 C 7.213027954101562 49.15438079833984 10.73387908935547 52.25319671630859 15.22819519042969 54.92359161376953 C 19.75963592529297 57.61604690551758 25.04353332519531 59.73172760009766 30.93312835693359 61.21187591552734 C 37.04835891723633 62.74871444702148 43.54691696166992 63.5279541015625 50.248291015625 63.5279541015625 C 56.94966506958008 63.5279541015625 63.44822311401367 62.74871444702148 69.56345367431641 61.21187591552734 C 75.45304870605469 59.73172760009766 80.73694610595703 57.61604690551758 85.26838684082031 54.92359161376953 C 89.76270294189453 52.25319671630859 93.28355407714844 49.15438079833984 95.733154296875 45.71323394775391 C 98.23038482666016 42.20516586303711 99.49658203125 38.49029922485352 99.49658203125 34.67179489135742 C 99.49658203125 30.74488830566406 98.17554473876953 28.19595336914062 95.33919525146484 26.65018081665039 C 92.80393218994141 25.26848602294922 88.94130706787109 24.62500762939453 83.18327331542969 24.62509918212891 C 79.19795989990234 24.62516784667969 74.56929016113281 24.92167282104492 69.66885375976562 25.23558044433594 C 63.79624938964844 25.61176681518555 57.14010620117188 26.03813934326172 50.248291015625 26.03813934326172 C 43.35583877563477 26.03813934326172 36.70021057128906 25.61175537109375 30.82806396484375 25.23556900024414 C 25.92766571044922 24.92163467407227 21.29903411865234 24.62509918212891 17.31331634521484 24.62509918212891 M 17.31332397460938 23.62510681152344 C 26.13320922851562 23.62510681152344 37.64804840087891 25.03813934326172 50.248291015625 25.03813934326172 C 77.99965667724609 25.03814315795898 100.49658203125 18.18270111083984 100.49658203125 34.67179489135742 C 100.49658203125 51.1609001159668 77.99964904785156 64.5279541015625 50.248291015625 64.5279541015625 C 22.49693298339844 64.5279541015625 0 51.1609001159668 0 34.67179489135742 C 0 25.66941833496094 6.707878112792969 23.62510681152344 17.31332397460938 23.62510681152344 Z" stroke="none" fill="#707070"/>
    </g>
    <g id="Path_7" data-name="Path 7" transform="translate(1010.895 626.198)" fill="#916a00">
      <path d="M 154.6935119628906 75.05873870849609 C 127.992805480957 75.05873870849609 108.8927459716797 74.68579864501953 92.76309967041016 73.84956359863281 C 73.21892547607422 72.83627319335938 57.81575012207031 71.08997344970703 45.67333602905273 68.51085662841797 C 34.2622184753418 66.08721160888672 24.69892501831055 61.75703430175781 18.01733589172363 55.98856353759766 C 14.61521911621094 53.05138778686523 11.9885721206665 49.76632690429688 10.21039581298828 46.22462463378906 C 8.371336936950684 42.56167984008789 7.438866138458252 38.61691665649414 7.438866138458252 34.49997711181641 C 7.438866138458252 30.78368186950684 8.075512886047363 27.3543872833252 9.331218719482422 24.30750465393066 C 10.55727767944336 21.33232879638672 12.41933631896973 18.61156463623047 14.86574840545654 16.22074127197266 C 17.2562198638916 13.88462257385254 20.29327774047852 11.77656364440918 23.89263153076172 9.955093383789062 C 27.38610076904297 8.187270164489746 31.54080772399902 6.623152256011963 36.24133682250977 5.306387424468994 C 45.09762954711914 2.825328826904297 56.15139389038086 1.105034708976746 70.03421783447266 0.04726994410157204 C 82.11457061767578 -0.8732006549835205 96.23516082763672 -1.301965355873108 114.4725723266602 -1.301965355873108 C 131.8282775878906 -1.301965355873108 150.9419860839844 -0.9097889065742493 171.1779174804688 -0.4946712255477905 C 195.0126342773438 -0.005671232473105192 219.6587524414062 0.4999758303165436 245.9999847412109 0.4999758303165436 C 270.1100463867188 0.4999758303165436 292.4088745117188 0.1498581767082214 313.9735107421875 -0.1887300610542297 C 332.1413879394531 -0.4739653468132019 349.3016967773438 -0.7434359192848206 364.9442749023438 -0.7434359192848206 C 383.9842224121094 -0.7434359192848206 398.548095703125 -0.3395535945892334 410.7778015136719 0.5276228785514832 C 424.9871520996094 1.535152316093445 436.2356262207031 3.197858095169067 445.1659240722656 5.610681533813477 C 449.9140319824219 6.893564224243164 454.1016845703125 8.424740791320801 457.6125183105469 10.16179943084717 C 461.2247924804688 11.94897556304932 464.2679138183594 14.02656364440918 466.6573486328125 16.3366813659668 C 469.0974426269531 18.6959171295166 470.9529113769531 21.39191627502441 472.1722717285156 24.34980010986328 C 473.4180297851562 27.37174034118652 474.0496826171875 30.78674125671387 474.0496826171875 34.49997711181641 C 474.0496826171875 39.13209533691406 473.2143249511719 43.34679794311523 471.5668029785156 47.02703475952148 C 469.9113464355469 50.72515106201172 467.3758544921875 54.01656341552734 464.0309143066406 56.80991744995117 C 460.6592712402344 59.62556457519531 456.3489379882812 62.03332901000977 451.2196350097656 63.96632766723633 C 446.0683288574219 65.90756225585938 439.9190979003906 67.43486022949219 432.9425659179688 68.5057373046875 C 414.7538757324219 71.29803466796875 389.8721008300781 73.00303649902344 354.6382141113281 73.87150573730469 C 321.9194030761719 74.67791748046875 283.3243408203125 74.67791748046875 245.9999847412109 74.67791748046875 C 228.7810974121094 74.67791748046875 212.2852783203125 74.78108978271484 196.3326263427734 74.88092041015625 C 181.7147521972656 74.97238922119141 167.9075775146484 75.05873870849609 154.6935119628906 75.05873870849609 Z" stroke="none"/>
      <path d="M 114.4723510742188 -0.8019638061523438 C 96.2479248046875 -0.8019638061523438 82.139404296875 -0.3737335205078125 70.07205200195312 0.5457420349121094 C 56.22235107421875 1.601036071777344 45.20034790039062 3.315738677978516 36.3760986328125 5.787799835205078 C 31.70693969726562 7.095859527587891 27.58279418945312 8.648033142089844 24.1182861328125 10.40121078491211 C 20.5645751953125 12.19956588745117 17.569091796875 14.27785873413086 15.21514892578125 16.57832717895508 C 12.817626953125 18.92138671875 10.99349975585938 21.58591842651367 9.79345703125 24.49797439575195 C 8.5628662109375 27.48415374755859 7.938873291015625 30.84932708740234 7.938873291015625 34.49997711181641 C 7.938873291015625 38.538330078125 8.85345458984375 42.40756225585938 10.6572265625 46.00027084350586 C 12.40576171875 49.48291778564453 14.99197387695312 52.71615219116211 18.34405517578125 55.61009216308594 C 24.9620361328125 61.32368087768555 34.44827270507812 65.61556243896484 45.7772216796875 68.02179718017578 C 57.8936767578125 70.59539031982422 73.27145385742188 72.33832550048828 92.78939819335938 73.35021209716797 C 108.9104614257812 74.18603515625 128.0026245117188 74.55873870849609 154.6942749023438 74.55873870849609 C 167.9067993164062 74.55873870849609 181.7131042480469 74.47238922119141 196.3299865722656 74.38092041015625 C 212.2832336425781 74.28109741210938 228.7795715332031 74.17791748046875 245.9999847412109 74.17791748046875 C 283.3212890625 74.17791748046875 321.9132080078125 74.17791748046875 354.6259155273438 73.37162017822266 C 389.8379821777344 72.50373840332031 414.6995239257812 70.80056762695312 432.8667602539062 68.01156616210938 C 439.8089904785156 66.94591522216797 445.9244384765625 65.42750549316406 451.0432739257812 63.49844741821289 C 456.1200561523438 61.58526992797852 460.3818664550781 59.2057991027832 463.7103881835938 56.42615127563477 C 466.9965209960938 53.68191528320312 469.4862670898438 50.45085906982422 471.1104431152344 46.82273864746094 C 472.7290344238281 43.20721054077148 473.5496826171875 39.06121063232422 473.5496826171875 34.49997711181641 C 473.5496826171875 20.37580108642578 464.4891052246094 11.34938812255859 445.0355224609375 6.093330383300781 C 436.1366271972656 3.688976287841797 424.9192810058594 2.031505584716797 410.7424621582031 1.026329040527344 C 398.5247497558594 0.1599769592285156 383.9720458984375 -0.2434921264648438 364.9442749023438 -0.243438720703125 C 349.3065795898438 -0.243377685546875 332.1492919921875 0.02597808837890625 313.984619140625 0.3112106323242188 C 292.4170532226562 0.6497993469238281 270.1151733398438 0.9999771118164062 245.9999847412109 0.9999771118164062 C 219.6536254882812 0.9999771118164062 195.0048217773438 0.4942703247070312 171.1675720214844 0.00521087646484375 C 150.9341735839844 -0.4099044799804688 131.8229370117188 -0.8019638061523438 114.4723510742188 -0.8019638061523438 M 114.4723510742188 -1.801956176757812 C 151.7811279296875 -1.801956176757812 196.7433776855469 -2.288818359375e-05 245.9999847412109 -2.288818359375e-05 C 290.9777526855469 -2.288818359375e-05 331.2265625 -1.24334716796875 364.9442749023438 -1.243415832519531 C 433.075927734375 -1.243553161621094 474.5496826171875 3.832530975341797 474.5496826171875 34.49997711181641 C 474.5496826171875 53.34209442138672 461.197998046875 64.67444610595703 433.0184631347656 68.99997711181641 C 393.37255859375 75.08632659912109 326.0227661132812 75.17791748046875 245.9999847412109 75.17791748046875 C 213.0184326171875 75.17791748046875 182.3437194824219 75.55872344970703 154.6943054199219 75.55872344970703 C 108.9939575195312 75.55872344970703 71.5517578125 74.51870727539062 45.5694580078125 68.99997711181641 C 22.733154296875 64.14962005615234 6.938873291015625 51.66250610351562 6.938873291015625 34.49997711181641 C 6.938873291015625 3.768943786621094 48.87429809570312 -1.801956176757812 114.4723510742188 -1.801956176757812 Z" stroke="none" fill="#707070"/>
    </g>
    <path id="Path_4" data-name="Path 4" d="M593.857,794.875c375.5-1.987,391.824,0,391.824,0s40.059,21.24,36.28,35.772-25.094,21.115-51.4,22.358-26.152-17.389-53.815-17.389S887.121,853,859.91,853s-28.117-17.389-52-17.389S787.653,853,764.373,853s-26.757-17.389-49.583-17.389S694.987,853,673.068,853s-24.489-17.389-45.955-17.389S605.5,854.246,587.205,853s-34.92-7.825-33.257-22.358S593.857,794.875,593.857,794.875Z" transform="translate(463 -197.992)" fill="#fff700" stroke="#707070" stroke-width="1"/>
    <g id="Path_3" data-name="Path 3" transform="translate(1478 672.51) rotate(180)" fill="#e5b721">
      <path d="M 226.5 190.5000152587891 C 211.1465606689453 190.5000152587891 195.8029479980469 189.8478546142578 180.8953399658203 188.5616302490234 C 166.3676605224609 187.3082427978516 152.0781707763672 185.4380187988281 138.4237823486328 183.0028991699219 C 125.0192184448242 180.6123962402344 112.0911636352539 177.6537933349609 99.99866485595703 174.209228515625 C 88.02449798583984 170.7984008789062 76.76555633544922 166.8817291259766 66.53455352783203 162.5679626464844 C 56.30933380126953 158.2566833496094 47.02766799926758 153.5136871337891 38.9473876953125 148.4707946777344 C 30.79888916015625 143.3852844238281 23.80244445800781 137.9510192871094 18.15250015258789 132.3187866210938 C 12.41066646575928 126.5950164794922 8.002833366394043 120.6094589233398 5.051499843597412 114.5282897949219 C 2.031333446502686 108.3053436279297 0.5 101.9032897949219 0.5 95.50001525878906 C 0.5 91.7099609375 1.041833281517029 88.20195770263672 2.11044454574585 85.07345581054688 C 3.152222156524658 82.02346038818359 4.731888771057129 79.22679138183594 6.805444240570068 76.76107025146484 C 8.82783317565918 74.35623931884766 11.3934440612793 72.17901611328125 14.43088912963867 70.28990173339844 C 17.38155555725098 68.45484924316406 20.88516616821289 66.82490539550781 24.8444995880127 65.44528961181641 C 32.34811019897461 62.83062362670898 41.65716552734375 61.00490188598633 53.30366516113281 59.86368179321289 C 63.47377777099609 58.86712646484375 75.68367004394531 58.38273620605469 90.63099670410156 58.38273620605469 C 108.1421661376953 58.38273620605469 127.7733306884766 59.03273773193359 148.5571136474609 59.72090148925781 C 173.4096069335938 60.54379272460938 199.1082153320312 61.39473724365234 226.5 61.39473724365234 C 253.8871612548828 61.39473724365234 279.5867919921875 60.54384613037109 304.4401550292969 59.7209587097168 C 325.2258911132812 59.03273773193359 344.8588256835938 58.38273620605469 362.3689880371094 58.38273620605469 C 377.3194580078125 58.38273620605469 389.5306091308594 58.86701202392578 399.700439453125 59.86323547363281 C 411.3473205566406 61.00418090820312 420.6562194824219 62.82968139648438 428.1591796875 65.44406890869141 C 432.1181030273438 66.82357025146484 435.6213989257812 68.45346069335938 438.5716247558594 70.28851318359375 C 441.6086730957031 72.17751312255859 444.173828125 74.354736328125 446.1958923339844 76.75968170166016 C 448.26904296875 79.22545623779297 449.848388671875 82.02229309082031 450.8899536132812 85.07251739501953 C 451.9582824707031 88.20117950439453 452.5 91.70951080322266 452.5 95.50001525878906 C 452.5 101.9032897949219 450.9686584472656 108.3053436279297 447.948486328125 114.5282897949219 C 444.9971618652344 120.6094589233398 440.5893249511719 126.5950164794922 434.8475036621094 132.3187866210938 C 429.1975708007812 137.9510192871094 422.2011108398438 143.3852844238281 414.0526123046875 148.4707946777344 C 405.9723205566406 153.5136871337891 396.690673828125 158.2566833496094 386.4654541015625 162.5679626464844 C 376.2344360351562 166.8817291259766 364.9754943847656 170.7984008789062 353.0013427734375 174.209228515625 C 340.9088439941406 177.6537933349609 327.9807739257812 180.6123962402344 314.5762329101562 183.0028991699219 C 300.9218444824219 185.4380187988281 286.63232421875 187.3082427978516 272.1046752929688 188.5616302490234 C 257.1970520019531 189.8478546142578 241.8534393310547 190.5000152587891 226.5 190.5000152587891 Z" stroke="none"/>
      <path d="M 90.63101196289062 58.88273620605469 C 75.70010375976562 58.88273620605469 63.50616455078125 59.36640930175781 53.35244750976562 60.36134338378906 C 41.74588012695312 61.49862670898438 32.47467041015625 63.31600952148438 25.00900268554688 65.91746520996094 C 21.08450317382812 67.28495788574219 17.61431884765625 68.89889526367188 14.6949462890625 70.71450805664062 C 11.7022705078125 72.57572937011719 9.176544189453125 74.71839904785156 7.1881103515625 77.08290100097656 C 5.154510498046875 79.50106811523438 3.6053466796875 82.243896484375 2.5836181640625 85.23512268066406 C 1.53277587890625 88.31146240234375 1 91.76507568359375 1 95.50001525878906 C 1 101.8270721435547 2.514434814453125 108.1556243896484 5.5013427734375 114.3099594116211 C 8.42816162109375 120.3406219482422 12.80337524414062 126.280517578125 18.5054931640625 131.9646911621094 C 24.12884521484375 137.5703430175781 31.09548950195312 142.9810791015625 39.21209716796875 148.046630859375 C 47.26995849609375 153.0755157470703 56.5279541015625 157.8062438964844 66.72882080078125 162.1072387695312 C 76.94122314453125 166.4131164550781 88.18087768554688 170.3230743408203 100.1356811523438 173.7283477783203 C 112.2120056152344 177.1682891845703 125.1235046386719 180.1231231689453 138.5115661621094 182.5106811523438 C 152.1511535644531 184.9431304931641 166.4255981445312 186.8113403320312 180.9383239746094 188.0635070800781 C 195.8316650390625 189.3484497070312 211.1608276367188 190.0000152587891 226.5 190.0000152587891 C 241.8391723632812 190.0000152587891 257.1683349609375 189.3484497070312 272.0616455078125 188.0635070800781 C 286.5744018554688 186.8113403320312 300.8488159179688 184.9431304931641 314.4884643554688 182.5106811523438 C 327.8764953613281 180.1231231689453 340.7879943847656 177.1682891845703 352.8643188476562 173.7283477783203 C 364.8191223144531 170.3230743408203 376.0587768554688 166.4131164550781 386.2711791992188 162.1072387695312 C 396.4720458984375 157.8062438964844 405.7300415039062 153.0755157470703 413.7879028320312 148.046630859375 C 421.9045104980469 142.9810791015625 428.8711547851562 137.5703430175781 434.4945068359375 131.9646911621094 C 440.1966247558594 126.280517578125 444.5718383789062 120.3406219482422 447.4986572265625 114.3099594116211 C 450.4855651855469 108.1556243896484 452 101.8270721435547 452 95.50001525878906 C 452 91.76457214355469 451.4673461914062 88.31062316894531 450.4167785644531 85.23406982421875 C 449.395263671875 82.24256896972656 447.8463745117188 79.49961853027344 445.8131713867188 77.08134460449219 C 443.8250427246094 74.71673583984375 441.2997741699219 72.57406616210938 438.3075561523438 70.71284484863281 C 435.3885498046875 68.89723205566406 431.9187622070312 67.28334045410156 427.9945983886719 65.91595458984375 C 420.529541015625 63.31468200683594 411.2584838867188 61.49751281738281 399.6516723632812 60.36056518554688 C 389.4979858398438 59.36590576171875 377.302734375 58.88250732421875 362.3690185546875 58.88273620605469 C 344.8690185546875 58.88296508789062 325.2423706054688 59.53273010253906 304.4634399414062 60.22068786621094 C 279.6038818359375 61.04368591308594 253.8979949951172 61.89472961425781 226.5 61.89472961425781 C 199.0999450683594 61.89472961425781 173.3971252441406 61.04368591308594 148.5405578613281 60.22062683105469 C 127.7610473632812 59.53262329101562 108.1338806152344 58.88273620605469 90.63101196289062 58.88273620605469 M 90.6309814453125 57.88272094726562 C 128.4822998046875 57.88272094726562 175.5208435058594 60.89472961425781 226.5 60.89472961425781 C 277.4715270996094 60.89472961425781 324.5206298828125 57.88325500488281 362.3690185546875 57.88272094726562 C 417.4067993164062 57.88194274902344 453 64.24810791015625 453 95.50001525878906 C 453 148.2431793212891 351.5924987792969 191.0000152587891 226.5 191.0000152587891 C 101.4075012207031 191.0000152587891 0 148.2431793212891 0 95.50001525878906 C 0 64.25132751464844 35.60287475585938 57.88272094726562 90.6309814453125 57.88272094726562 Z" stroke="none" fill="#707070"/>
    </g>
    <g id="sésame" transform="translate(0 28)">
      <ellipse id="Ellipse_11" data-name="Ellipse 11" cx="11" cy="4.5" rx="11" ry="4.5" transform="matrix(-0.695, 0.719, -0.719, -0.695, 1140.878, 488.713)" fill="#fff"/>
      <ellipse id="Ellipse_12" data-name="Ellipse 12" cx="11" cy="4.5" rx="11" ry="4.5" transform="matrix(-0.616, -0.788, 0.788, -0.616, 1085.226, 544.632)" fill="#fff"/>
      <ellipse id="Ellipse_13" data-name="Ellipse 13" cx="11" cy="4.5" rx="11" ry="4.5" transform="matrix(-0.766, -0.643, 0.643, -0.766, 1335.534, 503.497)" fill="#fff"/>
      <ellipse id="Ellipse_14" data-name="Ellipse 14" cx="11" cy="4.5" rx="11" ry="4.5" transform="translate(1195.557 513.919) rotate(19)" fill="#fff"/>
      <ellipse id="Ellipse_15" data-name="Ellipse 15" cx="11" cy="4.5" rx="11" ry="4.5" transform="translate(1229.133 483.089) rotate(-64)" fill="#fff"/>
      <ellipse id="Ellipse_16" data-name="Ellipse 16" cx="11" cy="4.5" rx="11" ry="4.5" transform="matrix(0.719, -0.695, 0.695, 0.719, 1285.961, 538.158)" fill="#fff"/>
      <ellipse id="Ellipse_17" data-name="Ellipse 17" cx="11" cy="4.5" rx="11" ry="4.5" transform="matrix(0.719, -0.695, 0.695, 0.719, 1412.961, 515.281)" fill="#fff"/>
    </g>
  </g>
</svg>
