<svg xmlns="http://www.w3.org/2000/svg" width="469.622" height="562.49" viewBox="0 0 469.622 562.49">
<style>
#Bunbot_vege {
    animation: bunbot 0.5s ease-out forwards;
    
}
#steak_cheese{
    transform: translate(342.609px, -100vh);
    animation: steak 0.2s ease-out forwards 0.3s;
}
#steak_cheese-2{
    transform: translate(342.609px, -100vh);
    animation: steak2 0.3s ease-out forwards 0.6s;
}
#steak_cheese-3{
    transform: translate(342.609px, -100vh);
    animation: steak3 0.4s ease-out forwards 0.8s;
}
#steak_cheese-4{
    transform: translate(342.609px, -100vh);
    animation: steak4 0.5s ease-out forwards 0.9s;
}
#Buntop {
    transform: translate(342.248px,-100vh);
    animation: buntop 0.3s ease-out forwards 1.1s;
}

@keyframes bunbot {
    0%{transform: translate(342.609px, -100vh)}
    60%{transform: translate(342.609px, -99px)}
    90%{transform: translate(342.609px, -150px)}
    100%{}
}   
@keyframes steak {
    0%{}
    100%{transform: translate(342.609px, -100px)}
}   
@keyframes steak2 {
    0%{}
    100%{transform: translate(342.609px, -184px)}
}
@keyframes steak3 {
    0%{}
    100%{transform: translate(342.609px, -271px)}
}
@keyframes steak4 {
    0%{}
    100%{transform: translate(342.609px, -355px)}
}
@keyframes buntop {
    0%{}
    100%{transform:translate(342.248px, -360px)}
}
</style>
  <g id="burgerContainer" transform="translate(-1358.938 -121.51)">
    <g id="Bunbot_vege" data-name="Bunbot&amp;vege" transform="translate(342.609 -99)">
      <g id="Path_6" data-name="Path 6" transform="translate(1478.232 783) rotate(180)" fill="#e5b721">
        <path d="M 312.2207946777344 81.30570983886719 C 299.4646911621094 81.30576324462891 286.2882080078125 81.19210052490234 272.3379821777344 81.07176208496094 C 257.5614013671875 80.94432067871094 242.2817993164062 80.81248474121094 226.6158599853516 80.81248474121094 C 210.9510192871094 80.81248474121094 195.6670837402344 80.94432067871094 180.8864135742188 81.07176208496094 C 166.9374084472656 81.19210052490234 153.7619781494141 81.30570983886719 141.0109100341797 81.30570983886719 C 116.7886352539062 81.30570983886719 99.24008178710938 80.88026428222656 84.111083984375 79.92626190185547 C 65.78997039794922 78.77093505859375 51.23208236694336 76.80126190185547 39.60558319091797 73.90470886230469 C 33.29513931274414 72.33248901367188 27.71286010742188 70.44154357910156 23.013916015625 68.28426361083984 C 18.12358283996582 66.03920745849609 13.9921932220459 63.41565322875977 10.73447132110596 60.48654174804688 C 7.373471260070801 57.46454238891602 4.812693119049072 54.00065612792969 3.123248815536499 50.19104385375977 C 1.382637739181519 46.26593399047852 0.5000266432762146 41.82432174682617 0.5000266432762146 36.98965454101562 C 0.5000266432762146 33.28187561035156 1.018748879432678 29.84809875488281 2.041748762130737 26.78365516662598 C 3.03947114944458 23.7950439453125 4.552304267883301 21.05293273925781 6.538193225860596 18.63348770141602 C 8.475859642028809 16.27276611328125 10.9339714050293 14.13393211364746 13.84424877166748 12.27637672424316 C 16.67363739013672 10.47043228149414 20.03313827514648 8.864932060241699 23.82952690124512 7.504376888275146 C 31.03947067260742 4.920487880706787 39.97902679443359 3.113154649734497 51.15902709960938 1.979154586791992 C 60.97180557250977 0.9838212132453918 72.72035980224609 0.4999878704547882 87.07614135742188 0.4999878704547882 C 104.7964172363281 0.4999878704547882 124.827751159668 1.22554337978363 146.0351867675781 1.993710041046143 C 170.5015258789062 2.879932403564453 198.2322540283203 3.884376764297485 226.6158599853516 3.884376764297485 C 254.9948577880859 3.884376764297485 282.7265930175781 2.879932403564453 307.1937561035156 1.993765592575073 C 328.403076171875 1.225598931312561 348.4361877441406 0.4999878704547882 366.1556396484375 0.4999878704547882 C 380.514404296875 0.4999878704547882 392.2643127441406 0.9836545586585999 402.0768127441406 1.978710055351257 C 413.2571411132812 3.112432241439819 422.1965942382812 4.919487953186035 429.4058532714844 7.503154754638672 C 433.201904296875 8.863598823547363 436.56103515625 10.46904373168945 439.3900146484375 12.27493190765381 C 442.2998657226562 14.13243198394775 444.757568359375 16.27126502990723 446.6949157714844 18.63209915161133 C 448.680419921875 21.05154418945312 450.19287109375 23.79382133483887 451.1903686523438 26.78271102905273 C 452.213134765625 29.84732055664062 452.7317504882812 33.28143310546875 452.7317504882812 36.98965454101562 C 452.7317504882812 41.82387542724609 451.8490295410156 46.26515579223633 450.1080932617188 50.19004440307617 C 448.4184265136719 53.99943161010742 445.8572998046875 57.46315383911133 442.4958190917969 60.48509979248047 C 439.2377014160156 63.41410064697266 435.1058654785156 66.03759765625 430.215087890625 68.28270721435547 C 425.5156860351562 70.43998718261719 419.9330139160156 72.33098602294922 413.6221923828125 73.90326690673828 C 401.9949645996094 76.80004119873047 387.4369201660156 78.76993560791016 369.1161804199219 79.92554473876953 C 353.986572265625 80.87987518310547 336.4394226074219 81.3055419921875 312.2207946777344 81.30570983886719 Z" stroke="none"/>
        <path d="M 87.07608032226562 0.9999847412109375 C 72.73736572265625 0.9999847412109375 61.0052490234375 1.482986450195312 51.20941162109375 2.476600646972656 C 40.0703125 3.606430053710938 31.16940307617188 5.405044555664062 23.99813842773438 7.975044250488281 C 20.23684692382812 9.323043823242188 16.9111328125 10.9119873046875 14.11318969726562 12.69782257080078 C 11.24740600585938 14.5269889831543 8.82879638671875 16.63076400756836 6.924591064453125 18.95071029663086 C 4.977569580078125 21.3227653503418 3.494293212890625 24.01143264770508 2.515960693359375 26.94198608398438 C 1.510040283203125 29.955322265625 0.999969482421875 33.33582305908203 0.999969482421875 36.98965454101562 C 0.999969482421875 41.75404357910156 1.868133544921875 46.12743377685547 3.580291748046875 49.98831939697266 C 5.240966796875 53.733154296875 7.760467529296875 57.14015197753906 11.06881713867188 60.11470794677734 C 14.28897094726562 63.01010131835938 18.37808227539062 65.60588073730469 23.2225341796875 67.82987976074219 C 27.89340209960938 69.97421264648438 33.44613647460938 71.85482025146484 39.72659301757812 73.41948699951172 C 51.323486328125 76.30870819091797 65.85214233398438 78.27388000488281 84.14279174804688 79.42726898193359 C 99.260986328125 80.38059997558594 116.7998657226562 80.80570983886719 141.0112609863281 80.80570983886719 C 153.7600708007812 80.80570983886719 166.9344177246094 80.69210052490234 180.8822631835938 80.57182312011719 C 195.6639099121094 80.44432067871094 210.9488067626953 80.31248474121094 226.6158599853516 80.31248474121094 C 242.2869720458984 80.31248474121094 257.5704345703125 80.44432067871094 272.3505859375 80.57182312011719 C 286.2965698242188 80.69210052490234 299.4691162109375 80.80570983886719 312.220458984375 80.80570983886719 C 336.427734375 80.80570983886719 353.9652404785156 80.38043212890625 369.0844116210938 79.42681884765625 C 387.3745727539062 78.27315521240234 401.9034118652344 76.30776214599609 413.5011291503906 73.41831970214844 C 419.7819213867188 71.85348510742188 425.3350830078125 69.97282409667969 430.00634765625 67.82843017578125 C 434.8512573242188 65.60437774658203 438.9408569335938 63.00859832763672 442.1614074707031 60.11331939697266 C 445.4701843261719 57.13876342773438 447.9900207519531 53.73187637329102 449.6509704589844 49.98731994628906 C 451.3634033203125 46.12665557861328 452.231689453125 41.75359725952148 452.231689453125 36.98965454101562 C 452.231689453125 33.33531951904297 451.7217407226562 29.95448684692383 450.7160339355469 26.94093322753906 C 449.7379150390625 24.01009750366211 448.2549743652344 21.32126617431641 446.308349609375 18.94910049438477 C 444.4044799804688 16.62904357910156 441.9862365722656 14.52521133422852 439.1209106445312 12.696044921875 C 436.3234252929688 10.91020965576172 432.9980163574219 9.321266174316406 429.2371215820312 7.973373413085938 C 422.06640625 5.403488159179688 413.1657104492188 3.605155944824219 402.0263061523438 2.475654602050781 C 392.2304077148438 1.482322692871094 380.4969787597656 0.9996566772460938 366.1555786132812 0.9999847412109375 C 348.4482421875 1.000373840332031 328.4234008789062 1.725601196289062 307.2228393554688 2.493377685546875 C 282.7482299804688 3.379768371582031 255.0080871582031 4.384376525878906 226.6158599853516 4.384376525878906 C 198.2231903076172 4.384376525878906 170.4876403808594 3.379768371582031 146.0170288085938 2.493377685546875 C 124.8142395019531 1.725379943847656 104.787353515625 0.9999847412109375 87.07608032226562 0.9999847412109375 M 87.07608032226562 -1.52587890625e-05 C 125.543701171875 -1.52587890625e-05 173.9835205078125 3.384376525878906 226.6158599853516 3.384376525878906 C 279.2405395507812 3.384376525878906 327.690673828125 0.00086212158203125 366.1555786132812 -1.52587890625e-05 C 419.1712036132812 -0.00122833251953125 453.231689453125 6.423439025878906 453.231689453125 36.98965454101562 C 453.231689453125 76.96552276611328 394.9319152832031 81.80569458007812 312.220458984375 81.80569458007812 C 285.8044738769531 81.80569458007812 256.9119262695312 81.31248474121094 226.6158599853516 81.31248474121094 C 196.3274230957031 81.31248474121094 167.4218139648438 81.80569458007812 141.01123046875 81.80569458007812 C 58.28915405273438 81.80569458007812 -3.0517578125e-05 76.96874237060547 -3.0517578125e-05 36.98965454101562 C -3.0517578125e-05 6.426658630371094 34.07003784179688 -1.52587890625e-05 87.07608032226562 -1.52587890625e-05 Z" stroke="none" fill="#707070"/>
      </g>
      <g id="vegetable" transform="translate(1016.834 667.141)">
        <path id="Path_5" data-name="Path 5" d="M593.876,794.875c375.684-1.987,392.018,0,392.018,0s40.079,21.24,36.3,35.772S997.087,851.762,970.771,853s-26.165-17.389-53.842-17.389S887.285,853,860.062,853s-28.131-17.389-52.027-17.389S787.768,853,764.477,853s-26.77-17.389-49.607-17.389S695.057,853,673.127,853s-24.5-17.389-45.977-17.389S605.522,854.246,587.222,853s-34.937-7.825-33.273-22.358S593.876,794.875,593.876,794.875Z" transform="translate(-553.834 -784.133)" fill="#8f0" stroke="#707070" stroke-width="1"/>
        <g id="Path_8" data-name="Path 8" transform="translate(77.079 3.887) rotate(7)" fill="red">
          <path d="M 50.248291015625 40.40285110473633 C 22.81698417663574 40.40285110473633 0.4999976754188538 27.23373222351074 0.4999976754188538 11.04669094085693 C 0.4999976754188538 8.913744926452637 0.8770909905433655 7.185131072998047 1.652824401855469 5.762077808380127 C 2.381130933761597 4.426037788391113 3.449464321136475 3.387291193008423 4.918877601623535 2.586491346359253 C 6.31049108505249 1.828091263771057 8.041677474975586 1.29411792755127 10.21137142181396 0.9540646076202393 C 12.16073131561279 0.6485312581062317 14.48379802703857 0.4999979436397552 17.31331825256348 0.4999979436397552 C 21.31503677368164 0.4999979436397552 25.95142364501953 0.7970246076583862 30.86002349853516 1.111491322517395 C 36.72468948364258 1.487197995185852 43.371826171875 1.913037896156311 50.248291015625 1.913037896156311 C 57.12370300292969 1.913037896156311 63.77102279663086 1.487211227416992 69.63582611083984 1.111504554748535 C 74.54486083984375 0.7970379590988159 79.18166351318359 0.4999979436397552 83.18326568603516 0.4999979436397552 C 86.013427734375 0.4999979436397552 88.33678436279297 0.6484779715538025 90.28610229492188 0.953917920589447 C 92.45586395263672 1.293904662132263 94.18701171875 1.827797889709473 95.57846069335938 2.58611798286438 C 97.04769134521484 3.386811256408691 98.11586761474609 4.425531387329102 98.84402465820312 5.761611461639404 C 99.61958312988281 7.184664726257324 99.99658203125 8.913437843322754 99.99658203125 11.04669094085693 C 99.99658203125 27.23373222351074 77.67959594726562 40.40285110473633 50.248291015625 40.40285110473633 Z" stroke="none"/>
          <path d="M 17.31331634521484 0.9999961853027344 C 11.55623626708984 0.9999961853027344 7.69384765625 1.643623352050781 5.15814208984375 3.025531768798828 C 2.321281433105469 4.571557998657227 1 7.120330810546875 1 11.04669189453125 C 1 14.86519813537598 2.266197204589844 18.58006477355957 4.763427734375 22.08813095092773 C 7.213027954101562 25.52927780151367 10.73387908935547 28.62809181213379 15.22819519042969 31.29849243164062 C 19.75963592529297 33.99094390869141 25.04353332519531 36.10662460327148 30.93312835693359 37.58677291870117 C 37.04835891723633 39.12361145019531 43.54691696166992 39.90285110473633 50.248291015625 39.90285110473633 C 56.94966506958008 39.90285110473633 63.44822311401367 39.12361145019531 69.56345367431641 37.58677291870117 C 75.45304870605469 36.10662460327148 80.73694610595703 33.99094390869141 85.26838684082031 31.29849243164062 C 89.76270294189453 28.62809181213379 93.28355407714844 25.52927780151367 95.733154296875 22.08813095092773 C 98.23038482666016 18.58006477355957 99.49658203125 14.86519813537598 99.49658203125 11.04669189453125 C 99.49658203125 7.119785308837891 98.17554473876953 4.570850372314453 95.33919525146484 3.025077819824219 C 92.80393218994141 1.643383026123047 88.94130706787109 0.9999046325683594 83.18327331542969 0.9999961853027344 C 79.19795989990234 1.000064849853516 74.56929016113281 1.29656982421875 69.66885375976562 1.610477447509766 C 63.79624938964844 1.986663818359375 57.14010620117188 2.413036346435547 50.248291015625 2.413036346435547 C 43.35583877563477 2.413036346435547 36.70021057128906 1.986652374267578 30.82806396484375 1.610466003417969 C 25.92766571044922 1.296531677246094 21.29903411865234 0.9999961853027344 17.31331634521484 0.9999961853027344 M 17.31332397460938 3.814697265625e-06 C 26.13320922851562 3.814697265625e-06 37.64804840087891 1.413036346435547 50.248291015625 1.413036346435547 C 77.99965667724609 1.413040161132812 100.49658203125 -5.442401885986328 100.49658203125 11.04669189453125 C 100.49658203125 27.53579711914062 77.99964904785156 40.90285110473633 50.248291015625 40.90285110473633 C 22.49693298339844 40.90285110473633 0 27.53579711914062 0 11.04669189453125 C 0 2.044315338134766 6.707878112792969 3.814697265625e-06 17.31332397460938 3.814697265625e-06 Z" stroke="none" fill="#707070"/>
        </g>
        <g id="Path_9" data-name="Path 9" transform="matrix(0.985, -0.174, 0.174, 0.985, 297.61, 17.451)" fill="red">
          <path d="M 50.248291015625 40.40285110473633 C 22.81698417663574 40.40285110473633 0.4999976754188538 27.23373222351074 0.4999976754188538 11.04669094085693 C 0.4999976754188538 8.913744926452637 0.8770909905433655 7.185131072998047 1.652824401855469 5.762077808380127 C 2.381130933761597 4.426037788391113 3.449464321136475 3.387291193008423 4.918877601623535 2.586491346359253 C 6.31049108505249 1.828091263771057 8.041677474975586 1.29411792755127 10.21137142181396 0.9540646076202393 C 12.16073131561279 0.6485312581062317 14.48379802703857 0.4999979436397552 17.31331825256348 0.4999979436397552 C 21.31503677368164 0.4999979436397552 25.95142364501953 0.7970246076583862 30.86002349853516 1.111491322517395 C 36.72468948364258 1.487197995185852 43.371826171875 1.913037896156311 50.248291015625 1.913037896156311 C 57.12370300292969 1.913037896156311 63.77102279663086 1.487211227416992 69.63582611083984 1.111504554748535 C 74.54486083984375 0.7970379590988159 79.18166351318359 0.4999979436397552 83.18326568603516 0.4999979436397552 C 86.013427734375 0.4999979436397552 88.33678436279297 0.6484779715538025 90.28610229492188 0.953917920589447 C 92.45586395263672 1.293904662132263 94.18701171875 1.827797889709473 95.57846069335938 2.58611798286438 C 97.04769134521484 3.386811256408691 98.11586761474609 4.425531387329102 98.84402465820312 5.761611461639404 C 99.61958312988281 7.184664726257324 99.99658203125 8.913437843322754 99.99658203125 11.04669094085693 C 99.99658203125 27.23373222351074 77.67959594726562 40.40285110473633 50.248291015625 40.40285110473633 Z" stroke="none"/>
          <path d="M 17.31331634521484 0.9999961853027344 C 11.55623626708984 0.9999961853027344 7.69384765625 1.643623352050781 5.15814208984375 3.025531768798828 C 2.321281433105469 4.571557998657227 1 7.120330810546875 1 11.04669189453125 C 1 14.86519813537598 2.266197204589844 18.58006477355957 4.763427734375 22.08813095092773 C 7.213027954101562 25.52927780151367 10.73387908935547 28.62809181213379 15.22819519042969 31.29849243164062 C 19.75963592529297 33.99094390869141 25.04353332519531 36.10662460327148 30.93312835693359 37.58677291870117 C 37.04835891723633 39.12361145019531 43.54691696166992 39.90285110473633 50.248291015625 39.90285110473633 C 56.94966506958008 39.90285110473633 63.44822311401367 39.12361145019531 69.56345367431641 37.58677291870117 C 75.45304870605469 36.10662460327148 80.73694610595703 33.99094390869141 85.26838684082031 31.29849243164062 C 89.76270294189453 28.62809181213379 93.28355407714844 25.52927780151367 95.733154296875 22.08813095092773 C 98.23038482666016 18.58006477355957 99.49658203125 14.86519813537598 99.49658203125 11.04669189453125 C 99.49658203125 7.119785308837891 98.17554473876953 4.570850372314453 95.33919525146484 3.025077819824219 C 92.80393218994141 1.643383026123047 88.94130706787109 0.9999046325683594 83.18327331542969 0.9999961853027344 C 79.19795989990234 1.000064849853516 74.56929016113281 1.29656982421875 69.66885375976562 1.610477447509766 C 63.79624938964844 1.986663818359375 57.14010620117188 2.413036346435547 50.248291015625 2.413036346435547 C 43.35583877563477 2.413036346435547 36.70021057128906 1.986652374267578 30.82806396484375 1.610466003417969 C 25.92766571044922 1.296531677246094 21.29903411865234 0.9999961853027344 17.31331634521484 0.9999961853027344 M 17.31332397460938 3.814697265625e-06 C 26.13320922851562 3.814697265625e-06 37.64804840087891 1.413036346435547 50.248291015625 1.413036346435547 C 77.99965667724609 1.413040161132812 100.49658203125 -5.442401885986328 100.49658203125 11.04669189453125 C 100.49658203125 27.53579711914062 77.99964904785156 40.90285110473633 50.248291015625 40.90285110473633 C 22.49693298339844 40.90285110473633 0 27.53579711914062 0 11.04669189453125 C 0 2.044315338134766 6.707878112792969 3.814697265625e-06 17.31332397460938 3.814697265625e-06 Z" stroke="none" fill="#707070"/>
        </g>
      </g>
    </g>
    <g id="steak_cheese" data-name="steak&amp;cheese" transform="translate(342.609 -100)">
      <g id="Path_7" data-name="Path 7" transform="translate(1010.895 626.198)" fill="#916a00">
        <path d="M 154.6935119628906 75.05873870849609 C 127.992805480957 75.05873870849609 108.8927459716797 74.68579864501953 92.76309967041016 73.84956359863281 C 73.21892547607422 72.83627319335938 57.81575012207031 71.08997344970703 45.67333602905273 68.51085662841797 C 34.2622184753418 66.08721160888672 24.69892501831055 61.75703430175781 18.01733589172363 55.98856353759766 C 14.61521911621094 53.05138778686523 11.9885721206665 49.76632690429688 10.21039581298828 46.22462463378906 C 8.371336936950684 42.56167984008789 7.438866138458252 38.61691665649414 7.438866138458252 34.49997711181641 C 7.438866138458252 30.78368186950684 8.075512886047363 27.3543872833252 9.331218719482422 24.30750465393066 C 10.55727767944336 21.33232879638672 12.41933631896973 18.61156463623047 14.86574840545654 16.22074127197266 C 17.2562198638916 13.88462257385254 20.29327774047852 11.77656364440918 23.89263153076172 9.955093383789062 C 27.38610076904297 8.187270164489746 31.54080772399902 6.623152256011963 36.24133682250977 5.306387424468994 C 45.09762954711914 2.825328826904297 56.15139389038086 1.105034708976746 70.03421783447266 0.04726994410157204 C 82.11457061767578 -0.8732006549835205 96.23516082763672 -1.301965355873108 114.4725723266602 -1.301965355873108 C 131.8282775878906 -1.301965355873108 150.9419860839844 -0.9097889065742493 171.1779174804688 -0.4946712255477905 C 195.0126342773438 -0.005671232473105192 219.6587524414062 0.4999758303165436 245.9999847412109 0.4999758303165436 C 270.1100463867188 0.4999758303165436 292.4088745117188 0.1498581767082214 313.9735107421875 -0.1887300610542297 C 332.1413879394531 -0.4739653468132019 349.3016967773438 -0.7434359192848206 364.9442749023438 -0.7434359192848206 C 383.9842224121094 -0.7434359192848206 398.548095703125 -0.3395535945892334 410.7778015136719 0.5276228785514832 C 424.9871520996094 1.535152316093445 436.2356262207031 3.197858095169067 445.1659240722656 5.610681533813477 C 449.9140319824219 6.893564224243164 454.1016845703125 8.424740791320801 457.6125183105469 10.16179943084717 C 461.2247924804688 11.94897556304932 464.2679138183594 14.02656364440918 466.6573486328125 16.3366813659668 C 469.0974426269531 18.6959171295166 470.9529113769531 21.39191627502441 472.1722717285156 24.34980010986328 C 473.4180297851562 27.37174034118652 474.0496826171875 30.78674125671387 474.0496826171875 34.49997711181641 C 474.0496826171875 39.13209533691406 473.2143249511719 43.34679794311523 471.5668029785156 47.02703475952148 C 469.9113464355469 50.72515106201172 467.3758544921875 54.01656341552734 464.0309143066406 56.80991744995117 C 460.6592712402344 59.62556457519531 456.3489379882812 62.03332901000977 451.2196350097656 63.96632766723633 C 446.0683288574219 65.90756225585938 439.9190979003906 67.43486022949219 432.9425659179688 68.5057373046875 C 414.7538757324219 71.29803466796875 389.8721008300781 73.00303649902344 354.6382141113281 73.87150573730469 C 321.9194030761719 74.67791748046875 283.3243408203125 74.67791748046875 245.9999847412109 74.67791748046875 C 228.7810974121094 74.67791748046875 212.2852783203125 74.78108978271484 196.3326263427734 74.88092041015625 C 181.7147521972656 74.97238922119141 167.9075775146484 75.05873870849609 154.6935119628906 75.05873870849609 Z" stroke="none"/>
        <path d="M 114.4723510742188 -0.8019638061523438 C 96.2479248046875 -0.8019638061523438 82.139404296875 -0.3737335205078125 70.07205200195312 0.5457420349121094 C 56.22235107421875 1.601036071777344 45.20034790039062 3.315738677978516 36.3760986328125 5.787799835205078 C 31.70693969726562 7.095859527587891 27.58279418945312 8.648033142089844 24.1182861328125 10.40121078491211 C 20.5645751953125 12.19956588745117 17.569091796875 14.27785873413086 15.21514892578125 16.57832717895508 C 12.817626953125 18.92138671875 10.99349975585938 21.58591842651367 9.79345703125 24.49797439575195 C 8.5628662109375 27.48415374755859 7.938873291015625 30.84932708740234 7.938873291015625 34.49997711181641 C 7.938873291015625 38.538330078125 8.85345458984375 42.40756225585938 10.6572265625 46.00027084350586 C 12.40576171875 49.48291778564453 14.99197387695312 52.71615219116211 18.34405517578125 55.61009216308594 C 24.9620361328125 61.32368087768555 34.44827270507812 65.61556243896484 45.7772216796875 68.02179718017578 C 57.8936767578125 70.59539031982422 73.27145385742188 72.33832550048828 92.78939819335938 73.35021209716797 C 108.9104614257812 74.18603515625 128.0026245117188 74.55873870849609 154.6942749023438 74.55873870849609 C 167.9067993164062 74.55873870849609 181.7131042480469 74.47238922119141 196.3299865722656 74.38092041015625 C 212.2832336425781 74.28109741210938 228.7795715332031 74.17791748046875 245.9999847412109 74.17791748046875 C 283.3212890625 74.17791748046875 321.9132080078125 74.17791748046875 354.6259155273438 73.37162017822266 C 389.8379821777344 72.50373840332031 414.6995239257812 70.80056762695312 432.8667602539062 68.01156616210938 C 439.8089904785156 66.94591522216797 445.9244384765625 65.42750549316406 451.0432739257812 63.49844741821289 C 456.1200561523438 61.58526992797852 460.3818664550781 59.2057991027832 463.7103881835938 56.42615127563477 C 466.9965209960938 53.68191528320312 469.4862670898438 50.45085906982422 471.1104431152344 46.82273864746094 C 472.7290344238281 43.20721054077148 473.5496826171875 39.06121063232422 473.5496826171875 34.49997711181641 C 473.5496826171875 20.37580108642578 464.4891052246094 11.34938812255859 445.0355224609375 6.093330383300781 C 436.1366271972656 3.688976287841797 424.9192810058594 2.031505584716797 410.7424621582031 1.026329040527344 C 398.5247497558594 0.1599769592285156 383.9720458984375 -0.2434921264648438 364.9442749023438 -0.243438720703125 C 349.3065795898438 -0.243377685546875 332.1492919921875 0.02597808837890625 313.984619140625 0.3112106323242188 C 292.4170532226562 0.6497993469238281 270.1151733398438 0.9999771118164062 245.9999847412109 0.9999771118164062 C 219.6536254882812 0.9999771118164062 195.0048217773438 0.4942703247070312 171.1675720214844 0.00521087646484375 C 150.9341735839844 -0.4099044799804688 131.8229370117188 -0.8019638061523438 114.4723510742188 -0.8019638061523438 M 114.4723510742188 -1.801956176757812 C 151.7811279296875 -1.801956176757812 196.7433776855469 -2.288818359375e-05 245.9999847412109 -2.288818359375e-05 C 290.9777526855469 -2.288818359375e-05 331.2265625 -1.24334716796875 364.9442749023438 -1.243415832519531 C 433.075927734375 -1.243553161621094 474.5496826171875 3.832530975341797 474.5496826171875 34.49997711181641 C 474.5496826171875 53.34209442138672 461.197998046875 64.67444610595703 433.0184631347656 68.99997711181641 C 393.37255859375 75.08632659912109 326.0227661132812 75.17791748046875 245.9999847412109 75.17791748046875 C 213.0184326171875 75.17791748046875 182.3437194824219 75.55872344970703 154.6943054199219 75.55872344970703 C 108.9939575195312 75.55872344970703 71.5517578125 74.51870727539062 45.5694580078125 68.99997711181641 C 22.733154296875 64.14962005615234 6.938873291015625 51.66250610351562 6.938873291015625 34.49997711181641 C 6.938873291015625 3.768943786621094 48.87429809570312 -1.801956176757812 114.4723510742188 -1.801956176757812 Z" stroke="none" fill="#707070"/>
      </g>
      <path id="Path_4" data-name="Path 4" d="M593.857,794.875c375.5-1.987,391.824,0,391.824,0s40.059,21.24,36.28,35.772-25.094,21.115-51.4,22.358-26.152-17.389-53.815-17.389S887.121,853,859.91,853s-28.117-17.389-52-17.389S787.653,853,764.373,853s-26.757-17.389-49.583-17.389S694.987,853,673.068,853s-24.489-17.389-45.955-17.389S605.5,854.246,587.205,853s-34.92-7.825-33.257-22.358S593.857,794.875,593.857,794.875Z" transform="translate(463 -197.992)" fill="#fff700" stroke="#707070" stroke-width="1"/>
    </g>
    <g id="steak_cheese-2" data-name="steak&amp;cheese" transform="translate(342.609 -184)">
      <g id="Path_7-2" data-name="Path 7" transform="translate(1010.895 626.198)" fill="#916a00">
        <path d="M 154.6935119628906 75.05873870849609 C 127.992805480957 75.05873870849609 108.8927459716797 74.68579864501953 92.76309967041016 73.84956359863281 C 73.21892547607422 72.83627319335938 57.81575012207031 71.08997344970703 45.67333602905273 68.51085662841797 C 34.2622184753418 66.08721160888672 24.69892501831055 61.75703430175781 18.01733589172363 55.98856353759766 C 14.61521911621094 53.05138778686523 11.9885721206665 49.76632690429688 10.21039581298828 46.22462463378906 C 8.371336936950684 42.56167984008789 7.438866138458252 38.61691665649414 7.438866138458252 34.49997711181641 C 7.438866138458252 30.78368186950684 8.075512886047363 27.3543872833252 9.331218719482422 24.30750465393066 C 10.55727767944336 21.33232879638672 12.41933631896973 18.61156463623047 14.86574840545654 16.22074127197266 C 17.2562198638916 13.88462257385254 20.29327774047852 11.77656364440918 23.89263153076172 9.955093383789062 C 27.38610076904297 8.187270164489746 31.54080772399902 6.623152256011963 36.24133682250977 5.306387424468994 C 45.09762954711914 2.825328826904297 56.15139389038086 1.105034708976746 70.03421783447266 0.04726994410157204 C 82.11457061767578 -0.8732006549835205 96.23516082763672 -1.301965355873108 114.4725723266602 -1.301965355873108 C 131.8282775878906 -1.301965355873108 150.9419860839844 -0.9097889065742493 171.1779174804688 -0.4946712255477905 C 195.0126342773438 -0.005671232473105192 219.6587524414062 0.4999758303165436 245.9999847412109 0.4999758303165436 C 270.1100463867188 0.4999758303165436 292.4088745117188 0.1498581767082214 313.9735107421875 -0.1887300610542297 C 332.1413879394531 -0.4739653468132019 349.3016967773438 -0.7434359192848206 364.9442749023438 -0.7434359192848206 C 383.9842224121094 -0.7434359192848206 398.548095703125 -0.3395535945892334 410.7778015136719 0.5276228785514832 C 424.9871520996094 1.535152316093445 436.2356262207031 3.197858095169067 445.1659240722656 5.610681533813477 C 449.9140319824219 6.893564224243164 454.1016845703125 8.424740791320801 457.6125183105469 10.16179943084717 C 461.2247924804688 11.94897556304932 464.2679138183594 14.02656364440918 466.6573486328125 16.3366813659668 C 469.0974426269531 18.6959171295166 470.9529113769531 21.39191627502441 472.1722717285156 24.34980010986328 C 473.4180297851562 27.37174034118652 474.0496826171875 30.78674125671387 474.0496826171875 34.49997711181641 C 474.0496826171875 39.13209533691406 473.2143249511719 43.34679794311523 471.5668029785156 47.02703475952148 C 469.9113464355469 50.72515106201172 467.3758544921875 54.01656341552734 464.0309143066406 56.80991744995117 C 460.6592712402344 59.62556457519531 456.3489379882812 62.03332901000977 451.2196350097656 63.96632766723633 C 446.0683288574219 65.90756225585938 439.9190979003906 67.43486022949219 432.9425659179688 68.5057373046875 C 414.7538757324219 71.29803466796875 389.8721008300781 73.00303649902344 354.6382141113281 73.87150573730469 C 321.9194030761719 74.67791748046875 283.3243408203125 74.67791748046875 245.9999847412109 74.67791748046875 C 228.7810974121094 74.67791748046875 212.2852783203125 74.78108978271484 196.3326263427734 74.88092041015625 C 181.7147521972656 74.97238922119141 167.9075775146484 75.05873870849609 154.6935119628906 75.05873870849609 Z" stroke="none"/>
        <path d="M 114.4723510742188 -0.8019638061523438 C 96.2479248046875 -0.8019638061523438 82.139404296875 -0.3737335205078125 70.07205200195312 0.5457420349121094 C 56.22235107421875 1.601036071777344 45.20034790039062 3.315738677978516 36.3760986328125 5.787799835205078 C 31.70693969726562 7.095859527587891 27.58279418945312 8.648033142089844 24.1182861328125 10.40121078491211 C 20.5645751953125 12.19956588745117 17.569091796875 14.27785873413086 15.21514892578125 16.57832717895508 C 12.817626953125 18.92138671875 10.99349975585938 21.58591842651367 9.79345703125 24.49797439575195 C 8.5628662109375 27.48415374755859 7.938873291015625 30.84932708740234 7.938873291015625 34.49997711181641 C 7.938873291015625 38.538330078125 8.85345458984375 42.40756225585938 10.6572265625 46.00027084350586 C 12.40576171875 49.48291778564453 14.99197387695312 52.71615219116211 18.34405517578125 55.61009216308594 C 24.9620361328125 61.32368087768555 34.44827270507812 65.61556243896484 45.7772216796875 68.02179718017578 C 57.8936767578125 70.59539031982422 73.27145385742188 72.33832550048828 92.78939819335938 73.35021209716797 C 108.9104614257812 74.18603515625 128.0026245117188 74.55873870849609 154.6942749023438 74.55873870849609 C 167.9067993164062 74.55873870849609 181.7131042480469 74.47238922119141 196.3299865722656 74.38092041015625 C 212.2832336425781 74.28109741210938 228.7795715332031 74.17791748046875 245.9999847412109 74.17791748046875 C 283.3212890625 74.17791748046875 321.9132080078125 74.17791748046875 354.6259155273438 73.37162017822266 C 389.8379821777344 72.50373840332031 414.6995239257812 70.80056762695312 432.8667602539062 68.01156616210938 C 439.8089904785156 66.94591522216797 445.9244384765625 65.42750549316406 451.0432739257812 63.49844741821289 C 456.1200561523438 61.58526992797852 460.3818664550781 59.2057991027832 463.7103881835938 56.42615127563477 C 466.9965209960938 53.68191528320312 469.4862670898438 50.45085906982422 471.1104431152344 46.82273864746094 C 472.7290344238281 43.20721054077148 473.5496826171875 39.06121063232422 473.5496826171875 34.49997711181641 C 473.5496826171875 20.37580108642578 464.4891052246094 11.34938812255859 445.0355224609375 6.093330383300781 C 436.1366271972656 3.688976287841797 424.9192810058594 2.031505584716797 410.7424621582031 1.026329040527344 C 398.5247497558594 0.1599769592285156 383.9720458984375 -0.2434921264648438 364.9442749023438 -0.243438720703125 C 349.3065795898438 -0.243377685546875 332.1492919921875 0.02597808837890625 313.984619140625 0.3112106323242188 C 292.4170532226562 0.6497993469238281 270.1151733398438 0.9999771118164062 245.9999847412109 0.9999771118164062 C 219.6536254882812 0.9999771118164062 195.0048217773438 0.4942703247070312 171.1675720214844 0.00521087646484375 C 150.9341735839844 -0.4099044799804688 131.8229370117188 -0.8019638061523438 114.4723510742188 -0.8019638061523438 M 114.4723510742188 -1.801956176757812 C 151.7811279296875 -1.801956176757812 196.7433776855469 -2.288818359375e-05 245.9999847412109 -2.288818359375e-05 C 290.9777526855469 -2.288818359375e-05 331.2265625 -1.24334716796875 364.9442749023438 -1.243415832519531 C 433.075927734375 -1.243553161621094 474.5496826171875 3.832530975341797 474.5496826171875 34.49997711181641 C 474.5496826171875 53.34209442138672 461.197998046875 64.67444610595703 433.0184631347656 68.99997711181641 C 393.37255859375 75.08632659912109 326.0227661132812 75.17791748046875 245.9999847412109 75.17791748046875 C 213.0184326171875 75.17791748046875 182.3437194824219 75.55872344970703 154.6943054199219 75.55872344970703 C 108.9939575195312 75.55872344970703 71.5517578125 74.51870727539062 45.5694580078125 68.99997711181641 C 22.733154296875 64.14962005615234 6.938873291015625 51.66250610351562 6.938873291015625 34.49997711181641 C 6.938873291015625 3.768943786621094 48.87429809570312 -1.801956176757812 114.4723510742188 -1.801956176757812 Z" stroke="none" fill="#707070"/>
      </g>
      <path id="Path_4-2" data-name="Path 4" d="M593.857,794.875c375.5-1.987,391.824,0,391.824,0s40.059,21.24,36.28,35.772-25.094,21.115-51.4,22.358-26.152-17.389-53.815-17.389S887.121,853,859.91,853s-28.117-17.389-52-17.389S787.653,853,764.373,853s-26.757-17.389-49.583-17.389S694.987,853,673.068,853s-24.489-17.389-45.955-17.389S605.5,854.246,587.205,853s-34.92-7.825-33.257-22.358S593.857,794.875,593.857,794.875Z" transform="translate(463 -197.992)" fill="#fff700" stroke="#707070" stroke-width="1"/>
    </g>
    <g id="steak_cheese-3" data-name="steak&amp;cheese" transform="translate(342.609 -271)">
      <g id="Path_7-3" data-name="Path 7" transform="translate(1010.895 626.198)" fill="#916a00">
        <path d="M 154.6935119628906 75.05873870849609 C 127.992805480957 75.05873870849609 108.8927459716797 74.68579864501953 92.76309967041016 73.84956359863281 C 73.21892547607422 72.83627319335938 57.81575012207031 71.08997344970703 45.67333602905273 68.51085662841797 C 34.2622184753418 66.08721160888672 24.69892501831055 61.75703430175781 18.01733589172363 55.98856353759766 C 14.61521911621094 53.05138778686523 11.9885721206665 49.76632690429688 10.21039581298828 46.22462463378906 C 8.371336936950684 42.56167984008789 7.438866138458252 38.61691665649414 7.438866138458252 34.49997711181641 C 7.438866138458252 30.78368186950684 8.075512886047363 27.3543872833252 9.331218719482422 24.30750465393066 C 10.55727767944336 21.33232879638672 12.41933631896973 18.61156463623047 14.86574840545654 16.22074127197266 C 17.2562198638916 13.88462257385254 20.29327774047852 11.77656364440918 23.89263153076172 9.955093383789062 C 27.38610076904297 8.187270164489746 31.54080772399902 6.623152256011963 36.24133682250977 5.306387424468994 C 45.09762954711914 2.825328826904297 56.15139389038086 1.105034708976746 70.03421783447266 0.04726994410157204 C 82.11457061767578 -0.8732006549835205 96.23516082763672 -1.301965355873108 114.4725723266602 -1.301965355873108 C 131.8282775878906 -1.301965355873108 150.9419860839844 -0.9097889065742493 171.1779174804688 -0.4946712255477905 C 195.0126342773438 -0.005671232473105192 219.6587524414062 0.4999758303165436 245.9999847412109 0.4999758303165436 C 270.1100463867188 0.4999758303165436 292.4088745117188 0.1498581767082214 313.9735107421875 -0.1887300610542297 C 332.1413879394531 -0.4739653468132019 349.3016967773438 -0.7434359192848206 364.9442749023438 -0.7434359192848206 C 383.9842224121094 -0.7434359192848206 398.548095703125 -0.3395535945892334 410.7778015136719 0.5276228785514832 C 424.9871520996094 1.535152316093445 436.2356262207031 3.197858095169067 445.1659240722656 5.610681533813477 C 449.9140319824219 6.893564224243164 454.1016845703125 8.424740791320801 457.6125183105469 10.16179943084717 C 461.2247924804688 11.94897556304932 464.2679138183594 14.02656364440918 466.6573486328125 16.3366813659668 C 469.0974426269531 18.6959171295166 470.9529113769531 21.39191627502441 472.1722717285156 24.34980010986328 C 473.4180297851562 27.37174034118652 474.0496826171875 30.78674125671387 474.0496826171875 34.49997711181641 C 474.0496826171875 39.13209533691406 473.2143249511719 43.34679794311523 471.5668029785156 47.02703475952148 C 469.9113464355469 50.72515106201172 467.3758544921875 54.01656341552734 464.0309143066406 56.80991744995117 C 460.6592712402344 59.62556457519531 456.3489379882812 62.03332901000977 451.2196350097656 63.96632766723633 C 446.0683288574219 65.90756225585938 439.9190979003906 67.43486022949219 432.9425659179688 68.5057373046875 C 414.7538757324219 71.29803466796875 389.8721008300781 73.00303649902344 354.6382141113281 73.87150573730469 C 321.9194030761719 74.67791748046875 283.3243408203125 74.67791748046875 245.9999847412109 74.67791748046875 C 228.7810974121094 74.67791748046875 212.2852783203125 74.78108978271484 196.3326263427734 74.88092041015625 C 181.7147521972656 74.97238922119141 167.9075775146484 75.05873870849609 154.6935119628906 75.05873870849609 Z" stroke="none"/>
        <path d="M 114.4723510742188 -0.8019638061523438 C 96.2479248046875 -0.8019638061523438 82.139404296875 -0.3737335205078125 70.07205200195312 0.5457420349121094 C 56.22235107421875 1.601036071777344 45.20034790039062 3.315738677978516 36.3760986328125 5.787799835205078 C 31.70693969726562 7.095859527587891 27.58279418945312 8.648033142089844 24.1182861328125 10.40121078491211 C 20.5645751953125 12.19956588745117 17.569091796875 14.27785873413086 15.21514892578125 16.57832717895508 C 12.817626953125 18.92138671875 10.99349975585938 21.58591842651367 9.79345703125 24.49797439575195 C 8.5628662109375 27.48415374755859 7.938873291015625 30.84932708740234 7.938873291015625 34.49997711181641 C 7.938873291015625 38.538330078125 8.85345458984375 42.40756225585938 10.6572265625 46.00027084350586 C 12.40576171875 49.48291778564453 14.99197387695312 52.71615219116211 18.34405517578125 55.61009216308594 C 24.9620361328125 61.32368087768555 34.44827270507812 65.61556243896484 45.7772216796875 68.02179718017578 C 57.8936767578125 70.59539031982422 73.27145385742188 72.33832550048828 92.78939819335938 73.35021209716797 C 108.9104614257812 74.18603515625 128.0026245117188 74.55873870849609 154.6942749023438 74.55873870849609 C 167.9067993164062 74.55873870849609 181.7131042480469 74.47238922119141 196.3299865722656 74.38092041015625 C 212.2832336425781 74.28109741210938 228.7795715332031 74.17791748046875 245.9999847412109 74.17791748046875 C 283.3212890625 74.17791748046875 321.9132080078125 74.17791748046875 354.6259155273438 73.37162017822266 C 389.8379821777344 72.50373840332031 414.6995239257812 70.80056762695312 432.8667602539062 68.01156616210938 C 439.8089904785156 66.94591522216797 445.9244384765625 65.42750549316406 451.0432739257812 63.49844741821289 C 456.1200561523438 61.58526992797852 460.3818664550781 59.2057991027832 463.7103881835938 56.42615127563477 C 466.9965209960938 53.68191528320312 469.4862670898438 50.45085906982422 471.1104431152344 46.82273864746094 C 472.7290344238281 43.20721054077148 473.5496826171875 39.06121063232422 473.5496826171875 34.49997711181641 C 473.5496826171875 20.37580108642578 464.4891052246094 11.34938812255859 445.0355224609375 6.093330383300781 C 436.1366271972656 3.688976287841797 424.9192810058594 2.031505584716797 410.7424621582031 1.026329040527344 C 398.5247497558594 0.1599769592285156 383.9720458984375 -0.2434921264648438 364.9442749023438 -0.243438720703125 C 349.3065795898438 -0.243377685546875 332.1492919921875 0.02597808837890625 313.984619140625 0.3112106323242188 C 292.4170532226562 0.6497993469238281 270.1151733398438 0.9999771118164062 245.9999847412109 0.9999771118164062 C 219.6536254882812 0.9999771118164062 195.0048217773438 0.4942703247070312 171.1675720214844 0.00521087646484375 C 150.9341735839844 -0.4099044799804688 131.8229370117188 -0.8019638061523438 114.4723510742188 -0.8019638061523438 M 114.4723510742188 -1.801956176757812 C 151.7811279296875 -1.801956176757812 196.7433776855469 -2.288818359375e-05 245.9999847412109 -2.288818359375e-05 C 290.9777526855469 -2.288818359375e-05 331.2265625 -1.24334716796875 364.9442749023438 -1.243415832519531 C 433.075927734375 -1.243553161621094 474.5496826171875 3.832530975341797 474.5496826171875 34.49997711181641 C 474.5496826171875 53.34209442138672 461.197998046875 64.67444610595703 433.0184631347656 68.99997711181641 C 393.37255859375 75.08632659912109 326.0227661132812 75.17791748046875 245.9999847412109 75.17791748046875 C 213.0184326171875 75.17791748046875 182.3437194824219 75.55872344970703 154.6943054199219 75.55872344970703 C 108.9939575195312 75.55872344970703 71.5517578125 74.51870727539062 45.5694580078125 68.99997711181641 C 22.733154296875 64.14962005615234 6.938873291015625 51.66250610351562 6.938873291015625 34.49997711181641 C 6.938873291015625 3.768943786621094 48.87429809570312 -1.801956176757812 114.4723510742188 -1.801956176757812 Z" stroke="none" fill="#707070"/>
      </g>
      <path id="Path_4-3" data-name="Path 4" d="M593.857,794.875c375.5-1.987,391.824,0,391.824,0s40.059,21.24,36.28,35.772-25.094,21.115-51.4,22.358-26.152-17.389-53.815-17.389S887.121,853,859.91,853s-28.117-17.389-52-17.389S787.653,853,764.373,853s-26.757-17.389-49.583-17.389S694.987,853,673.068,853s-24.489-17.389-45.955-17.389S605.5,854.246,587.205,853s-34.92-7.825-33.257-22.358S593.857,794.875,593.857,794.875Z" transform="translate(463 -197.992)" fill="#fff700" stroke="#707070" stroke-width="1"/>
    </g>
    <g id="steak_cheese-4" data-name="steak&amp;cheese" transform="translate(342.609 -355)">
      <g id="Path_7-4" data-name="Path 7" transform="translate(1010.895 626.198)" fill="#916a00">
        <path d="M 154.6935119628906 75.05873870849609 C 127.992805480957 75.05873870849609 108.8927459716797 74.68579864501953 92.76309967041016 73.84956359863281 C 73.21892547607422 72.83627319335938 57.81575012207031 71.08997344970703 45.67333602905273 68.51085662841797 C 34.2622184753418 66.08721160888672 24.69892501831055 61.75703430175781 18.01733589172363 55.98856353759766 C 14.61521911621094 53.05138778686523 11.9885721206665 49.76632690429688 10.21039581298828 46.22462463378906 C 8.371336936950684 42.56167984008789 7.438866138458252 38.61691665649414 7.438866138458252 34.49997711181641 C 7.438866138458252 30.78368186950684 8.075512886047363 27.3543872833252 9.331218719482422 24.30750465393066 C 10.55727767944336 21.33232879638672 12.41933631896973 18.61156463623047 14.86574840545654 16.22074127197266 C 17.2562198638916 13.88462257385254 20.29327774047852 11.77656364440918 23.89263153076172 9.955093383789062 C 27.38610076904297 8.187270164489746 31.54080772399902 6.623152256011963 36.24133682250977 5.306387424468994 C 45.09762954711914 2.825328826904297 56.15139389038086 1.105034708976746 70.03421783447266 0.04726994410157204 C 82.11457061767578 -0.8732006549835205 96.23516082763672 -1.301965355873108 114.4725723266602 -1.301965355873108 C 131.8282775878906 -1.301965355873108 150.9419860839844 -0.9097889065742493 171.1779174804688 -0.4946712255477905 C 195.0126342773438 -0.005671232473105192 219.6587524414062 0.4999758303165436 245.9999847412109 0.4999758303165436 C 270.1100463867188 0.4999758303165436 292.4088745117188 0.1498581767082214 313.9735107421875 -0.1887300610542297 C 332.1413879394531 -0.4739653468132019 349.3016967773438 -0.7434359192848206 364.9442749023438 -0.7434359192848206 C 383.9842224121094 -0.7434359192848206 398.548095703125 -0.3395535945892334 410.7778015136719 0.5276228785514832 C 424.9871520996094 1.535152316093445 436.2356262207031 3.197858095169067 445.1659240722656 5.610681533813477 C 449.9140319824219 6.893564224243164 454.1016845703125 8.424740791320801 457.6125183105469 10.16179943084717 C 461.2247924804688 11.94897556304932 464.2679138183594 14.02656364440918 466.6573486328125 16.3366813659668 C 469.0974426269531 18.6959171295166 470.9529113769531 21.39191627502441 472.1722717285156 24.34980010986328 C 473.4180297851562 27.37174034118652 474.0496826171875 30.78674125671387 474.0496826171875 34.49997711181641 C 474.0496826171875 39.13209533691406 473.2143249511719 43.34679794311523 471.5668029785156 47.02703475952148 C 469.9113464355469 50.72515106201172 467.3758544921875 54.01656341552734 464.0309143066406 56.80991744995117 C 460.6592712402344 59.62556457519531 456.3489379882812 62.03332901000977 451.2196350097656 63.96632766723633 C 446.0683288574219 65.90756225585938 439.9190979003906 67.43486022949219 432.9425659179688 68.5057373046875 C 414.7538757324219 71.29803466796875 389.8721008300781 73.00303649902344 354.6382141113281 73.87150573730469 C 321.9194030761719 74.67791748046875 283.3243408203125 74.67791748046875 245.9999847412109 74.67791748046875 C 228.7810974121094 74.67791748046875 212.2852783203125 74.78108978271484 196.3326263427734 74.88092041015625 C 181.7147521972656 74.97238922119141 167.9075775146484 75.05873870849609 154.6935119628906 75.05873870849609 Z" stroke="none"/>
        <path d="M 114.4723510742188 -0.8019638061523438 C 96.2479248046875 -0.8019638061523438 82.139404296875 -0.3737335205078125 70.07205200195312 0.5457420349121094 C 56.22235107421875 1.601036071777344 45.20034790039062 3.315738677978516 36.3760986328125 5.787799835205078 C 31.70693969726562 7.095859527587891 27.58279418945312 8.648033142089844 24.1182861328125 10.40121078491211 C 20.5645751953125 12.19956588745117 17.569091796875 14.27785873413086 15.21514892578125 16.57832717895508 C 12.817626953125 18.92138671875 10.99349975585938 21.58591842651367 9.79345703125 24.49797439575195 C 8.5628662109375 27.48415374755859 7.938873291015625 30.84932708740234 7.938873291015625 34.49997711181641 C 7.938873291015625 38.538330078125 8.85345458984375 42.40756225585938 10.6572265625 46.00027084350586 C 12.40576171875 49.48291778564453 14.99197387695312 52.71615219116211 18.34405517578125 55.61009216308594 C 24.9620361328125 61.32368087768555 34.44827270507812 65.61556243896484 45.7772216796875 68.02179718017578 C 57.8936767578125 70.59539031982422 73.27145385742188 72.33832550048828 92.78939819335938 73.35021209716797 C 108.9104614257812 74.18603515625 128.0026245117188 74.55873870849609 154.6942749023438 74.55873870849609 C 167.9067993164062 74.55873870849609 181.7131042480469 74.47238922119141 196.3299865722656 74.38092041015625 C 212.2832336425781 74.28109741210938 228.7795715332031 74.17791748046875 245.9999847412109 74.17791748046875 C 283.3212890625 74.17791748046875 321.9132080078125 74.17791748046875 354.6259155273438 73.37162017822266 C 389.8379821777344 72.50373840332031 414.6995239257812 70.80056762695312 432.8667602539062 68.01156616210938 C 439.8089904785156 66.94591522216797 445.9244384765625 65.42750549316406 451.0432739257812 63.49844741821289 C 456.1200561523438 61.58526992797852 460.3818664550781 59.2057991027832 463.7103881835938 56.42615127563477 C 466.9965209960938 53.68191528320312 469.4862670898438 50.45085906982422 471.1104431152344 46.82273864746094 C 472.7290344238281 43.20721054077148 473.5496826171875 39.06121063232422 473.5496826171875 34.49997711181641 C 473.5496826171875 20.37580108642578 464.4891052246094 11.34938812255859 445.0355224609375 6.093330383300781 C 436.1366271972656 3.688976287841797 424.9192810058594 2.031505584716797 410.7424621582031 1.026329040527344 C 398.5247497558594 0.1599769592285156 383.9720458984375 -0.2434921264648438 364.9442749023438 -0.243438720703125 C 349.3065795898438 -0.243377685546875 332.1492919921875 0.02597808837890625 313.984619140625 0.3112106323242188 C 292.4170532226562 0.6497993469238281 270.1151733398438 0.9999771118164062 245.9999847412109 0.9999771118164062 C 219.6536254882812 0.9999771118164062 195.0048217773438 0.4942703247070312 171.1675720214844 0.00521087646484375 C 150.9341735839844 -0.4099044799804688 131.8229370117188 -0.8019638061523438 114.4723510742188 -0.8019638061523438 M 114.4723510742188 -1.801956176757812 C 151.7811279296875 -1.801956176757812 196.7433776855469 -2.288818359375e-05 245.9999847412109 -2.288818359375e-05 C 290.9777526855469 -2.288818359375e-05 331.2265625 -1.24334716796875 364.9442749023438 -1.243415832519531 C 433.075927734375 -1.243553161621094 474.5496826171875 3.832530975341797 474.5496826171875 34.49997711181641 C 474.5496826171875 53.34209442138672 461.197998046875 64.67444610595703 433.0184631347656 68.99997711181641 C 393.37255859375 75.08632659912109 326.0227661132812 75.17791748046875 245.9999847412109 75.17791748046875 C 213.0184326171875 75.17791748046875 182.3437194824219 75.55872344970703 154.6943054199219 75.55872344970703 C 108.9939575195312 75.55872344970703 71.5517578125 74.51870727539062 45.5694580078125 68.99997711181641 C 22.733154296875 64.14962005615234 6.938873291015625 51.66250610351562 6.938873291015625 34.49997711181641 C 6.938873291015625 3.768943786621094 48.87429809570312 -1.801956176757812 114.4723510742188 -1.801956176757812 Z" stroke="none" fill="#707070"/>
      </g>
      <path id="Path_4-4" data-name="Path 4" d="M593.857,794.875c375.5-1.987,391.824,0,391.824,0s40.059,21.24,36.28,35.772-25.094,21.115-51.4,22.358-26.152-17.389-53.815-17.389S887.121,853,859.91,853s-28.117-17.389-52-17.389S787.653,853,764.373,853s-26.757-17.389-49.583-17.389S694.987,853,673.068,853s-24.489-17.389-45.955-17.389S605.5,854.246,587.205,853s-34.92-7.825-33.257-22.358S593.857,794.875,593.857,794.875Z" transform="translate(463 -197.992)" fill="#fff700" stroke="#707070" stroke-width="1"/>
    </g>
    <g id="Buntop" transform="translate(342.248 -360)">
      <g id="Path_3" data-name="Path 3" transform="translate(1478 672.51) rotate(180)" fill="#e5b721">
        <path d="M 226.5 190.5000152587891 C 211.1465606689453 190.5000152587891 195.8029479980469 189.8478546142578 180.8953399658203 188.5616302490234 C 166.3676605224609 187.3082427978516 152.0781707763672 185.4380187988281 138.4237823486328 183.0028991699219 C 125.0192184448242 180.6123962402344 112.0911636352539 177.6537933349609 99.99866485595703 174.209228515625 C 88.02449798583984 170.7984008789062 76.76555633544922 166.8817291259766 66.53455352783203 162.5679626464844 C 56.30933380126953 158.2566833496094 47.02766799926758 153.5136871337891 38.9473876953125 148.4707946777344 C 30.79888916015625 143.3852844238281 23.80244445800781 137.9510192871094 18.15250015258789 132.3187866210938 C 12.41066646575928 126.5950164794922 8.002833366394043 120.6094589233398 5.051499843597412 114.5282897949219 C 2.031333446502686 108.3053436279297 0.5 101.9032897949219 0.5 95.50001525878906 C 0.5 91.7099609375 1.041833281517029 88.20195770263672 2.11044454574585 85.07345581054688 C 3.152222156524658 82.02346038818359 4.731888771057129 79.22679138183594 6.805444240570068 76.76107025146484 C 8.82783317565918 74.35623931884766 11.3934440612793 72.17901611328125 14.43088912963867 70.28990173339844 C 17.38155555725098 68.45484924316406 20.88516616821289 66.82490539550781 24.8444995880127 65.44528961181641 C 32.34811019897461 62.83062362670898 41.65716552734375 61.00490188598633 53.30366516113281 59.86368179321289 C 63.47377777099609 58.86712646484375 75.68367004394531 58.38273620605469 90.63099670410156 58.38273620605469 C 108.1421661376953 58.38273620605469 127.7733306884766 59.03273773193359 148.5571136474609 59.72090148925781 C 173.4096069335938 60.54379272460938 199.1082153320312 61.39473724365234 226.5 61.39473724365234 C 253.8871612548828 61.39473724365234 279.5867919921875 60.54384613037109 304.4401550292969 59.7209587097168 C 325.2258911132812 59.03273773193359 344.8588256835938 58.38273620605469 362.3689880371094 58.38273620605469 C 377.3194580078125 58.38273620605469 389.5306091308594 58.86701202392578 399.700439453125 59.86323547363281 C 411.3473205566406 61.00418090820312 420.6562194824219 62.82968139648438 428.1591796875 65.44406890869141 C 432.1181030273438 66.82357025146484 435.6213989257812 68.45346069335938 438.5716247558594 70.28851318359375 C 441.6086730957031 72.17751312255859 444.173828125 74.354736328125 446.1958923339844 76.75968170166016 C 448.26904296875 79.22545623779297 449.848388671875 82.02229309082031 450.8899536132812 85.07251739501953 C 451.9582824707031 88.20117950439453 452.5 91.70951080322266 452.5 95.50001525878906 C 452.5 101.9032897949219 450.9686584472656 108.3053436279297 447.948486328125 114.5282897949219 C 444.9971618652344 120.6094589233398 440.5893249511719 126.5950164794922 434.8475036621094 132.3187866210938 C 429.1975708007812 137.9510192871094 422.2011108398438 143.3852844238281 414.0526123046875 148.4707946777344 C 405.9723205566406 153.5136871337891 396.690673828125 158.2566833496094 386.4654541015625 162.5679626464844 C 376.2344360351562 166.8817291259766 364.9754943847656 170.7984008789062 353.0013427734375 174.209228515625 C 340.9088439941406 177.6537933349609 327.9807739257812 180.6123962402344 314.5762329101562 183.0028991699219 C 300.9218444824219 185.4380187988281 286.63232421875 187.3082427978516 272.1046752929688 188.5616302490234 C 257.1970520019531 189.8478546142578 241.8534393310547 190.5000152587891 226.5 190.5000152587891 Z" stroke="none"/>
        <path d="M 90.63101196289062 58.88273620605469 C 75.70010375976562 58.88273620605469 63.50616455078125 59.36640930175781 53.35244750976562 60.36134338378906 C 41.74588012695312 61.49862670898438 32.47467041015625 63.31600952148438 25.00900268554688 65.91746520996094 C 21.08450317382812 67.28495788574219 17.61431884765625 68.89889526367188 14.6949462890625 70.71450805664062 C 11.7022705078125 72.57572937011719 9.176544189453125 74.71839904785156 7.1881103515625 77.08290100097656 C 5.154510498046875 79.50106811523438 3.6053466796875 82.243896484375 2.5836181640625 85.23512268066406 C 1.53277587890625 88.31146240234375 1 91.76507568359375 1 95.50001525878906 C 1 101.8270721435547 2.514434814453125 108.1556243896484 5.5013427734375 114.3099594116211 C 8.42816162109375 120.3406219482422 12.80337524414062 126.280517578125 18.5054931640625 131.9646911621094 C 24.12884521484375 137.5703430175781 31.09548950195312 142.9810791015625 39.21209716796875 148.046630859375 C 47.26995849609375 153.0755157470703 56.5279541015625 157.8062438964844 66.72882080078125 162.1072387695312 C 76.94122314453125 166.4131164550781 88.18087768554688 170.3230743408203 100.1356811523438 173.7283477783203 C 112.2120056152344 177.1682891845703 125.1235046386719 180.1231231689453 138.5115661621094 182.5106811523438 C 152.1511535644531 184.9431304931641 166.4255981445312 186.8113403320312 180.9383239746094 188.0635070800781 C 195.8316650390625 189.3484497070312 211.1608276367188 190.0000152587891 226.5 190.0000152587891 C 241.8391723632812 190.0000152587891 257.1683349609375 189.3484497070312 272.0616455078125 188.0635070800781 C 286.5744018554688 186.8113403320312 300.8488159179688 184.9431304931641 314.4884643554688 182.5106811523438 C 327.8764953613281 180.1231231689453 340.7879943847656 177.1682891845703 352.8643188476562 173.7283477783203 C 364.8191223144531 170.3230743408203 376.0587768554688 166.4131164550781 386.2711791992188 162.1072387695312 C 396.4720458984375 157.8062438964844 405.7300415039062 153.0755157470703 413.7879028320312 148.046630859375 C 421.9045104980469 142.9810791015625 428.8711547851562 137.5703430175781 434.4945068359375 131.9646911621094 C 440.1966247558594 126.280517578125 444.5718383789062 120.3406219482422 447.4986572265625 114.3099594116211 C 450.4855651855469 108.1556243896484 452 101.8270721435547 452 95.50001525878906 C 452 91.76457214355469 451.4673461914062 88.31062316894531 450.4167785644531 85.23406982421875 C 449.395263671875 82.24256896972656 447.8463745117188 79.49961853027344 445.8131713867188 77.08134460449219 C 443.8250427246094 74.71673583984375 441.2997741699219 72.57406616210938 438.3075561523438 70.71284484863281 C 435.3885498046875 68.89723205566406 431.9187622070312 67.28334045410156 427.9945983886719 65.91595458984375 C 420.529541015625 63.31468200683594 411.2584838867188 61.49751281738281 399.6516723632812 60.36056518554688 C 389.4979858398438 59.36590576171875 377.302734375 58.88250732421875 362.3690185546875 58.88273620605469 C 344.8690185546875 58.88296508789062 325.2423706054688 59.53273010253906 304.4634399414062 60.22068786621094 C 279.6038818359375 61.04368591308594 253.8979949951172 61.89472961425781 226.5 61.89472961425781 C 199.0999450683594 61.89472961425781 173.3971252441406 61.04368591308594 148.5405578613281 60.22062683105469 C 127.7610473632812 59.53262329101562 108.1338806152344 58.88273620605469 90.63101196289062 58.88273620605469 M 90.6309814453125 57.88272094726562 C 128.4822998046875 57.88272094726562 175.5208435058594 60.89472961425781 226.5 60.89472961425781 C 277.4715270996094 60.89472961425781 324.5206298828125 57.88325500488281 362.3690185546875 57.88272094726562 C 417.4067993164062 57.88194274902344 453 64.24810791015625 453 95.50001525878906 C 453 148.2431793212891 351.5924987792969 191.0000152587891 226.5 191.0000152587891 C 101.4075012207031 191.0000152587891 0 148.2431793212891 0 95.50001525878906 C 0 64.25132751464844 35.60287475585938 57.88272094726562 90.6309814453125 57.88272094726562 Z" stroke="none" fill="#707070"/>
      </g>
      <g id="ssame" transform="translate(0 28)">
        <ellipse id="Ellipse_11" data-name="Ellipse 11" cx="11" cy="4.5" rx="11" ry="4.5" transform="matrix(-0.695, 0.719, -0.719, -0.695, 1140.878, 488.713)" fill="#fff"/>
        <ellipse id="Ellipse_12" data-name="Ellipse 12" cx="11" cy="4.5" rx="11" ry="4.5" transform="matrix(-0.616, -0.788, 0.788, -0.616, 1085.226, 544.632)" fill="#fff"/>
        <ellipse id="Ellipse_13" data-name="Ellipse 13" cx="11" cy="4.5" rx="11" ry="4.5" transform="matrix(-0.766, -0.643, 0.643, -0.766, 1335.534, 503.497)" fill="#fff"/>
        <ellipse id="Ellipse_14" data-name="Ellipse 14" cx="11" cy="4.5" rx="11" ry="4.5" transform="translate(1195.557 513.919) rotate(19)" fill="#fff"/>
        <ellipse id="Ellipse_15" data-name="Ellipse 15" cx="11" cy="4.5" rx="11" ry="4.5" transform="translate(1229.133 483.089) rotate(-64)" fill="#fff"/>
        <ellipse id="Ellipse_16" data-name="Ellipse 16" cx="11" cy="4.5" rx="11" ry="4.5" transform="matrix(0.719, -0.695, 0.695, 0.719, 1285.961, 538.158)" fill="#fff"/>
        <ellipse id="Ellipse_17" data-name="Ellipse 17" cx="11" cy="4.5" rx="11" ry="4.5" transform="matrix(0.719, -0.695, 0.695, 0.719, 1412.961, 515.281)" fill="#fff"/>
      </g>
    </g>
  </g>
</svg>
