<svg xmlns="http://www.w3.org/2000/svg" xmlns:xlink="http://www.w3.org/1999/xlink" width="116" height="116" viewBox="0 0 116 116">
  <defs>
    <filter id="Line_2" x="59.5" y="10.472" width="9" height="92.557" filterUnits="userSpaceOnUse">
      <feOffset dy="3" input="SourceAlpha"/>
      <feGaussianBlur stdDeviation="0.5" result="blur"/>
      <feFlood flood-opacity="0.161"/>
      <feComposite operator="in" in2="blur"/>
      <feComposite in="SourceGraphic"/>
    </filter>
    <filter id="Path_6" x="45.5" y="10.472" width="9" height="92.557" filterUnits="userSpaceOnUse">
      <feOffset dy="3" input="SourceAlpha"/>
      <feGaussianBlur stdDeviation="0.5" result="blur-2"/>
      <feFlood flood-opacity="0.161"/>
      <feComposite operator="in" in2="blur-2"/>
      <feComposite in="SourceGraphic"/>
    </filter>
    <filter id="Path_3" x="23.924" y="13.584" width="25.152" height="33.333" filterUnits="userSpaceOnUse">
      <feOffset dy="3" input="SourceAlpha"/>
      <feGaussianBlur stdDeviation="0.5" result="blur-3"/>
      <feFlood flood-opacity="0.161"/>
      <feComposite operator="in" in2="blur-3"/>
      <feComposite in="SourceGraphic"/>
    </filter>
    <filter id="Path_3-2" x="66.424" y="13.584" width="22.152" height="31.833" filterUnits="userSpaceOnUse">
      <feOffset dy="3" input="SourceAlpha"/>
      <feGaussianBlur result="blur-4"/>
      <feFlood flood-opacity="0.161"/>
      <feComposite operator="in" in2="blur-4"/>
      <feComposite in="SourceGraphic"/>
    </filter>
    <filter id="Path_1" x="28.617" y="29.497" width="54.938" height="54.003" filterUnits="userSpaceOnUse">
      <feOffset input="SourceAlpha"/>
      <feGaussianBlur stdDeviation="0.5" result="blur-5"/>
      <feFlood flood-opacity="0.161"/>
      <feComposite operator="in" in2="blur-5"/>
      <feComposite in="SourceGraphic"/>
    </filter>
  </defs>
  <g id="token_cryptokemon" transform="translate(-3 -4)">
    <path id="Path_5" data-name="Path 5" d="M57,0c31.48,0,57,25.3,57,56.5S88.48,113,57,113,0,87.7,0,56.5,25.52,0,57,0Z" transform="translate(5 7)" fill="#af9905"/>
    <g id="Path_4" data-name="Path 4" transform="translate(3 4)" fill="#cfb400">
      <path d="M 56.5 111 C 49.14166641235352 111 42.00450134277344 109.5593032836914 35.28675079345703 106.7179336547852 C 32.05783462524414 105.3522186279297 28.94338417053223 103.661735534668 26.02993392944336 101.6934356689453 C 23.14363288879395 99.74349975585938 20.42941665649414 97.50405120849609 17.96268272399902 95.03731536865234 C 15.49594974517822 92.57057952880859 13.25650024414062 89.85636901855469 11.30656623840332 86.97006988525391 C 9.338266372680664 84.05661773681641 7.647783279418945 80.94216918945312 6.282066822052002 77.71324920654297 C 3.440700054168701 70.99549865722656 2 63.85833358764648 2 56.5 C 2 49.14166641235352 3.440700054168701 42.00450134277344 6.282066822052002 35.28675079345703 C 7.647783279418945 32.05783462524414 9.338266372680664 28.94338417053223 11.30656623840332 26.02993392944336 C 13.25650024414062 23.14363288879395 15.49594974517822 20.42941665649414 17.96268272399902 17.96268272399902 C 20.42941665649414 15.49594974517822 23.14363288879395 13.25650024414062 26.02993392944336 11.30656623840332 C 28.94338417053223 9.338266372680664 32.05783462524414 7.647783279418945 35.28675079345703 6.282066822052002 C 42.00450134277344 3.440700054168701 49.14166641235352 2 56.5 2 C 63.85833358764648 2 70.99549865722656 3.440700054168701 77.71324920654297 6.282066822052002 C 80.94216918945312 7.647783279418945 84.05661773681641 9.338266372680664 86.97006988525391 11.30656623840332 C 89.85636901855469 13.25650024414062 92.57057952880859 15.49594974517822 95.03731536865234 17.96268272399902 C 97.50405120849609 20.42941665649414 99.74349975585938 23.14363288879395 101.6934356689453 26.02993392944336 C 103.661735534668 28.94338417053223 105.3522186279297 32.05783462524414 106.7179336547852 35.28675079345703 C 109.5593032836914 42.00450134277344 111 49.14166641235352 111 56.5 C 111 63.85833358764648 109.5593032836914 70.99549865722656 106.7179336547852 77.71324920654297 C 105.3522186279297 80.94216918945312 103.661735534668 84.05661773681641 101.6934356689453 86.97006988525391 C 99.74349975585938 89.85636901855469 97.50405120849609 92.57057952880859 95.03731536865234 95.03731536865234 C 92.57057952880859 97.50405120849609 89.85636901855469 99.74349975585938 86.97006988525391 101.6934356689453 C 84.05661773681641 103.661735534668 80.94216918945312 105.3522186279297 77.71324920654297 106.7179336547852 C 70.99549865722656 109.5593032836914 63.85833358764648 111 56.5 111 Z" stroke="none"/>
      <path d="M 56.5 4 C 49.41078186035156 4 42.53574371337891 5.387542724609375 36.06585693359375 8.124069213867188 C 29.81467437744141 10.76808929443359 24.19969177246094 14.55409240722656 19.37689208984375 19.37689208984375 C 14.55409240722656 24.19969177246094 10.76808929443359 29.81467437744141 8.124069213867188 36.06585693359375 C 5.387542724609375 42.53574371337891 4 49.41078186035156 4 56.5 C 4 63.58921813964844 5.387542724609375 70.46425628662109 8.124069213867188 76.93414306640625 C 10.76808929443359 83.18532562255859 14.55409240722656 88.80030822753906 19.37689208984375 93.62310791015625 C 24.19969177246094 98.44590759277344 29.81467437744141 102.2319107055664 36.06585693359375 104.8759307861328 C 42.53574371337891 107.6124572753906 49.41078186035156 109 56.5 109 C 63.58921813964844 109 70.46425628662109 107.6124572753906 76.93414306640625 104.8759307861328 C 83.18532562255859 102.2319107055664 88.80030822753906 98.44590759277344 93.62310791015625 93.62310791015625 C 98.44590759277344 88.80030822753906 102.2319107055664 83.18532562255859 104.8759307861328 76.93414306640625 C 107.6124572753906 70.46425628662109 109 63.58921813964844 109 56.5 C 109 49.41078186035156 107.6124572753906 42.53574371337891 104.8759307861328 36.06585693359375 C 102.2319107055664 29.81467437744141 98.44590759277344 24.19969177246094 93.62310791015625 19.37689208984375 C 88.80030822753906 14.55409240722656 83.18532562255859 10.76808929443359 76.93414306640625 8.124069213867188 C 70.46425628662109 5.387542724609375 63.58921813964844 4 56.5 4 M 56.5 0 C 87.70408630371094 0 113 25.29590606689453 113 56.5 C 113 87.70408630371094 87.70408630371094 113 56.5 113 C 25.29590606689453 113 0 87.70408630371094 0 56.5 C 0 25.29590606689453 25.29590606689453 0 56.5 0 Z" stroke="none" fill="#fd0"/>
    </g>
    <g id="crypto_logo">
      <g transform="matrix(1, 0, 0, 1, 3, 4)" filter="url(#Line_2)">
        <line id="Line_2-2" data-name="Line 2" x1="1" y2="88" transform="translate(63.5 10.5)" fill="none" stroke="#ffe854" stroke-width="5"/>
      </g>
      <g transform="matrix(1, 0, 0, 1, 3, 4)" filter="url(#Path_6)">
        <path id="Path_6-2" data-name="Path 6" d="M1,0,0,88" transform="translate(49.5 10.5)" fill="none" stroke="#ffe854" stroke-width="5"/>
      </g>
      <g id="pikachu_face">
        <g id="oreille_droite" transform="translate(16 14)">
          <g transform="matrix(1, 0, 0, 1, -13, -10)" filter="url(#Path_3)">
            <g id="Path_3-3" data-name="Path 3" transform="matrix(0.53, 0.85, -0.85, 0.53, 32.21, 13.58)" fill="#ffe854">
              <path d="M 14.50000190734863 7.5 C 8.282218933105469 7.5 2.946185350418091 5.015500545501709 1.024258375167847 3.999420404434204 C 1.739906787872314 3.619853496551514 2.927388191223145 3.036633014678955 4.44849157333374 2.458280086517334 C 6.798081398010254 1.564919948577881 10.44919109344482 0.5 14.50000190734863 0.5 C 20.40638542175293 0.5 25.49227333068848 2.713174343109131 27.94634628295898 3.998103618621826 C 27.10912322998047 4.437034606933594 25.67836761474609 5.134267330169678 23.80588150024414 5.799379825592041 C 20.62893104553223 6.927830219268799 17.49798202514648 7.5 14.50000190734863 7.5 Z M 28.99929237365723 4.499680042266846 L 28.82934761047363 4.376359462738037 L 28.87656784057617 3.563139915466309 L 28.99970245361328 3.500319957733154 L 29.17208099365234 3.531150102615356 L 29.11666107177734 4.485599994659424 L 28.99929237365723 4.499680042266846 Z" stroke="none"/>
              <path d="M 14.50000190734863 1 C 10.5349006652832 1 6.954761505126953 2.04233980178833 4.649612426757812 2.916749954223633 C 3.650844573974609 3.295609474182129 2.797988891601562 3.676719665527344 2.131336212158203 3.999345779418945 C 4.480325698852539 5.13370418548584 9.157190322875977 7 14.50000190734863 7 C 17.44079208374023 7 20.51541137695312 6.437540054321289 23.63847160339355 5.328229904174805 C 24.93631172180176 4.867240905761719 26.01863098144531 4.390583992004395 26.83312225341797 3.998084545135498 C 24.19924354553223 2.72755241394043 19.66698837280273 1 14.50000190734863 1 M 14.50000190734863 0 C 22.41868591308594 0 28.86802673339844 3.951603412628174 28.99803733825684 3.9998779296875 C 28.86928749084473 4.031319141387939 22.43579292297363 8 14.50000190734863 8 C 6.491870880126953 8 1.9073486328125e-06 4 1.9073486328125e-06 4 C 1.9073486328125e-06 4 6.491870880126953 0 14.50000190734863 0 Z M 28.99929237365723 3.99968433380127 C 29.00009727478027 3.99968433380127 29.000244140625 4.00031566619873 28.99970245361328 4.00031566619873 C 28.99938011169434 4.00031566619873 28.99883270263672 4.000173091888428 28.99803733825684 3.9998779296875 C 28.9985523223877 3.999752521514893 28.99897956848145 3.99968433380127 28.99929237365723 3.99968433380127 Z" stroke="none" fill="#ffe854"/>
            </g>
          </g>
          <path id="Path_2" data-name="Path 2" d="M6.147,4.457c4.092.443,7.437,2.092,7.967,2.9S8.507,9.225,3.818,9.178s-5.983-1.708-6.012-1.9S2.055,4.014,6.147,4.457Z" transform="matrix(0.342, 0.94, -0.94, 0.342, 23.432, 5.26)"/>
        </g>
        <g id="oreille_gauche" transform="translate(69.424 17.584)">
          <g transform="matrix(1, 0, 0, 1, -66.42, -13.58)" filter="url(#Path_3-2)">
            <g id="Path_3-4" data-name="Path 3" transform="matrix(-0.53, 0.85, -0.85, -0.53, 88.58, 17.82)" fill="#ffe854">
              <path d="M 14.50000095367432 7.500000476837158 C 8.282217979431152 7.500000476837158 2.946184396743774 5.015501022338867 1.02425742149353 3.999420881271362 C 1.739905834197998 3.619853973388672 2.927387237548828 3.036633491516113 4.448490619659424 2.458280563354492 C 6.798080444335938 1.564920425415039 10.44919013977051 0.5000004768371582 14.50000095367432 0.5000004768371582 C 17.49798011779785 0.5000004768371582 20.62893104553223 1.072170495986938 23.80588150024414 2.200620412826538 C 25.67836761474609 2.86573314666748 27.10912322998047 3.562965869903564 27.94634628295898 4.001896858215332 C 25.49227333068848 5.286826133728027 20.40638542175293 7.500000476837158 14.50000095367432 7.500000476837158 Z M 28.99970054626465 4.499680519104004 L 28.87656593322754 4.43686056137085 L 28.82931137084961 3.623035907745361 L 28.99794006347656 3.500320434570312 L 29.11666107177734 3.514400482177734 L 29.17208099365234 4.468850612640381 L 28.99970054626465 4.499680519104004 Z" stroke="none"/>
              <path d="M 14.50000095367432 7.000000476837158 C 19.6669864654541 7.000000476837158 24.19924926757812 5.272444725036621 26.83312797546387 4.001913070678711 C 26.01864433288574 3.60941481590271 24.93636703491211 3.132775068283081 23.63852119445801 2.671780586242676 C 20.51543998718262 1.562470436096191 17.44079971313477 1.000000476837158 14.50000095367432 1.000000476837158 C 10.5349006652832 1.000000476837158 6.954760551452637 2.042340517044067 4.64961051940918 2.916750431060791 C 3.650843620300293 3.295609951019287 2.797987937927246 3.676719903945923 2.131335973739624 3.999346494674683 C 4.480324268341064 5.133704662322998 9.15718936920166 7.000000476837158 14.50000095367432 7.000000476837158 M 14.50000095367432 8 C 6.491870403289795 8 5.972290182398865e-07 4.000000476837158 5.972290182398865e-07 4.000000476837158 C 5.972290182398865e-07 4.000000476837158 6.491870403289795 4.76837158203125e-07 14.50000095367432 4.76837158203125e-07 C 22.435791015625 4.76837158203125e-07 28.86929702758789 3.968681335449219 28.99803733825684 4.0001220703125 C 28.86802673339844 4.048397064208984 22.4186840057373 8 14.50000095367432 8 Z M 28.99929237365723 4.000316143035889 C 28.99897956848145 4.000316619873047 28.9985523223877 4.000247955322266 28.99803733825684 4.0001220703125 C 28.99950790405273 3.999576807022095 29.00015640258789 3.999539375305176 29 4.000000476837158 C 28.99993133544922 4.000210285186768 28.99969100952148 4.000314712524414 28.99929237365723 4.000316143035889 Z" stroke="none" fill="#ffe854"/>
            </g>
          </g>
          <path id="Path_2-2" data-name="Path 2" d="M8.341,4.723c4.092-.443,7.437-2.092,7.967-2.9S10.7-.045,6.012,0,.029,1.709,0,1.9,4.249,5.166,8.341,4.723Z" transform="translate(20.52 2.755) rotate(110)"/>
        </g>
        <g transform="matrix(1, 0, 0, 1, 3, 4)" filter="url(#Path_1)">
          <g id="Path_1-2" data-name="Path 1" transform="translate(31 31)" fill="#ffe854">
            <path d="M 25.5000057220459 50.50000381469727 C 16.20887565612793 50.50000381469727 5.955914974212646 45.69525146484375 1.65072500705719 39.3237419128418 C 0.6288750171661377 37.81143188476562 -0.01565499976277351 36.26883316040039 -0.2649349868297577 34.73878479003906 C -0.5277150273323059 33.12597274780273 -0.3478350043296814 31.52958297729492 0.2696950137615204 29.99396324157715 C 1.02641499042511 28.1121826171875 1.704234957695007 25.94649314880371 2.421854972839355 23.65364265441895 C 4.036845207214355 18.49364280700684 5.867304801940918 12.64518356323242 9.224325180053711 8.139913558959961 C 13.05624485015869 2.997303247451782 18.25359535217285 0.4974232614040375 25.11336517333984 0.4974232614040375 C 25.240234375 0.4974232614040375 25.36494445800781 0.4982532560825348 25.49335479736328 0.499963253736496 C 32.45160675048828 0.5925532579421997 37.71384429931641 3.251043319702148 41.58076477050781 8.627373695373535 C 44.92818450927734 13.28141307830811 46.70047378540039 19.29038238525391 48.12453460693359 24.11868286132812 C 48.76461410522461 26.28889274597168 49.36920547485352 28.33874320983887 50.03052520751953 29.99301338195801 C 50.57583618164062 31.35705375671387 50.69690322875977 32.84066390991211 50.39039611816406 34.40263366699219 C 50.09547424316406 35.90554428100586 49.41361618041992 37.45366287231445 48.36377334594727 39.00398254394531 C 46.27770614624023 42.08453369140625 42.89439392089844 44.94541168212891 38.83709335327148 47.05962371826172 C 36.76190567016602 48.14098358154297 34.58896636962891 48.9860725402832 32.37861633300781 49.57141494750977 C 30.0518856048584 50.18758392333984 27.73758506774902 50.50000381469727 25.5000057220459 50.50000381469727 Z" stroke="none"/>
            <path d="M 25.11335563659668 0.9974250793457031 C 21.55442428588867 0.9974250793457031 18.40239524841309 1.701633453369141 15.74483489990234 3.090503692626953 C 13.39251327514648 4.319843292236328 11.39077377319336 6.069244384765625 9.625255584716797 8.438652038574219 C 6.319065093994141 12.87571334838867 4.502105712890625 18.6810417175293 2.899036407470703 23.80298233032227 C 2.178386688232422 26.10553359985352 1.497695922851562 28.28039360046387 0.7335853576660156 30.18051338195801 C 0.15057373046875 31.63030242919922 -0.01934432983398438 33.13687133789062 0.2285537719726562 34.65838241577148 C 0.4661140441894531 36.116455078125 1.083995819091797 37.59193420410156 2.065013885498047 39.04381561279297 C 4.082244873046875 42.02924346923828 7.555355072021484 44.78894424438477 11.84456634521484 46.8145637512207 C 16.19420623779297 48.86872482299805 21.04379463195801 50.00000381469727 25.4999942779541 50.00000381469727 C 27.69439506530762 50.00000381469727 29.96562576293945 49.69318389892578 32.25061416625977 49.08808135986328 C 34.42528533935547 48.51218414306641 36.56356430053711 47.68052291870117 38.60602569580078 46.6162223815918 C 42.59104537963867 44.53966522216797 45.90938568115234 41.7366943359375 47.94976425170898 38.7236328125 C 49.39335632324219 36.59185409545898 50.84563446044922 33.37891387939453 49.56625366210938 30.17862319946289 C 48.89623641967773 28.50262260437012 48.28843688964844 26.44186401367188 47.64495468139648 24.26011276245117 C 46.15799331665039 19.21856307983398 44.4726448059082 13.50435256958008 41.17484283447266 8.9193115234375 C 37.40696716308594 3.680702209472656 32.27532577514648 1.090244293212891 25.48667526245117 0.9999122619628906 C 25.36051559448242 0.9982337951660156 25.23799514770508 0.9974250793457031 25.11335563659668 0.9974250793457031 M 25.11335372924805 -0.0025787353515625 C 25.2424430847168 -0.0025787353515625 25.36933708190918 -0.001735687255859375 25.4999942779541 3.814697265625e-06 C 45.13938522338867 0.2613334655761719 46.87805557250977 20.76035308837891 50.49480438232422 29.80741310119629 C 54.11154556274414 38.85447311401367 39.58325576782227 51.00000381469727 25.4999942779541 51.00000381469727 C 11.4167366027832 51.00000381469727 -4.392803192138672 40.24819183349609 -0.1942062377929688 29.80741310119629 C 3.976463317871094 19.43609428405762 5.838787078857422 -0.0025787353515625 25.11335372924805 -0.0025787353515625 Z" stroke="none" fill="#ffe854"/>
          </g>
        </g>
        <ellipse id="Ellipse_4" data-name="Ellipse 4" cx="4.5" cy="5" rx="4.5" ry="5" transform="translate(36 64)" fill="#d23333"/>
        <ellipse id="Ellipse_5" data-name="Ellipse 5" cx="4.5" cy="5" rx="4.5" ry="5" transform="translate(73 64)" fill="#d23333"/>
        <g id="oeil_droit">
          <ellipse id="Ellipse_6" data-name="Ellipse 6" cx="3.5" cy="4" rx="3.5" ry="4" transform="translate(48 47)"/>
          <circle id="Ellipse_8" data-name="Ellipse 8" cx="1" cy="1" r="1" transform="translate(51 49)" fill="#fff"/>
        </g>
        <g id="oeil_gauche">
          <ellipse id="Ellipse_7" data-name="Ellipse 7" cx="3.5" cy="4" rx="3.5" ry="4" transform="translate(65 47)"/>
          <circle id="Ellipse_9" data-name="Ellipse 9" cx="1" cy="1" r="1" transform="translate(67 49)" fill="#fff"/>
        </g>
      </g>
    </g>
  </g>
</svg>
